M48
; DRILL file {KiCad 8.0.7} date 2025-02-16T23:41:54-0700
; FORMAT={-:-/ absolute / inch / decimal}
; #@! TF.CreationDate,2025-02-16T23:41:54-07:00
; #@! TF.GenerationSoftware,Kicad,Pcbnew,8.0.7
; #@! TF.FileFunction,Plated,1,2,PTH
FMAT,2
INCH
; #@! TA.AperFunction,Plated,PTH,ComponentDrill
T1C0.0315
; #@! TA.AperFunction,Plated,PTH,ComponentDrill
T2C0.0450
; #@! TA.AperFunction,Plated,PTH,ComponentDrill
T3C0.0512
; #@! TA.AperFunction,Plated,PTH,ComponentDrill
T4C0.1300
%
G90
G05
T1
X7.25Y-3.95
X7.25Y-4.075
X7.25Y-4.225
X7.25Y-4.5
X7.2508Y-4.35
X7.2516Y-4.65
X7.3484Y-4.075
X7.3492Y-4.35
X7.35Y-4.65
X7.65Y-3.95
X7.65Y-4.225
X7.65Y-4.5
T2
X6.925Y-4.06
X6.925Y-4.1502
X6.925Y-4.2403
X6.925Y-4.3305
X6.925Y-4.4206
X7.025Y-4.105
X7.025Y-4.1952
X7.025Y-4.2853
X7.025Y-4.3755
X7.025Y-4.4656
X7.125Y-4.06
X7.125Y-4.1502
X7.125Y-4.2403
X7.125Y-4.3305
X7.125Y-4.4206
T3
X7.7531Y-4.225
X7.8516Y-3.9297
X7.8516Y-4.1266
X7.8516Y-4.3234
X7.8516Y-4.5203
X7.95Y-4.0281
X7.95Y-4.225
X7.95Y-4.4219
X8.3437Y-4.1266
X8.3437Y-4.3234
T4
X7.025Y-3.743
X7.025Y-4.737
M30
