G04 #@! TF.GenerationSoftware,KiCad,Pcbnew,(5.1.8-0-10_14)*
G04 #@! TF.CreationDate,2021-12-04T19:30:23-07:00*
G04 #@! TF.ProjectId,PC8801mkII VGA,50433838-3031-46d6-9b49-49205647412e,rev?*
G04 #@! TF.SameCoordinates,Original*
G04 #@! TF.FileFunction,Legend,Top*
G04 #@! TF.FilePolarity,Positive*
%FSLAX46Y46*%
G04 Gerber Fmt 4.6, Leading zero omitted, Abs format (unit mm)*
G04 Created by KiCad (PCBNEW (5.1.8-0-10_14)) date 2021-12-04 19:30:23*
%MOMM*%
%LPD*%
G01*
G04 APERTURE LIST*
%ADD10C,0.250000*%
%ADD11C,0.300000*%
%ADD12C,0.120000*%
%ADD13C,0.152400*%
%ADD14C,0.127000*%
%ADD15C,0.200000*%
%ADD16C,0.150000*%
G04 APERTURE END LIST*
D10*
X189826571Y-118911714D02*
X189826571Y-119578380D01*
X189398000Y-118911714D02*
X189398000Y-119435523D01*
X189445619Y-119530761D01*
X189540857Y-119578380D01*
X189683714Y-119578380D01*
X189778952Y-119530761D01*
X189826571Y-119483142D01*
X190255142Y-119530761D02*
X190350380Y-119578380D01*
X190540857Y-119578380D01*
X190636095Y-119530761D01*
X190683714Y-119435523D01*
X190683714Y-119387904D01*
X190636095Y-119292666D01*
X190540857Y-119245047D01*
X190398000Y-119245047D01*
X190302761Y-119197428D01*
X190255142Y-119102190D01*
X190255142Y-119054571D01*
X190302761Y-118959333D01*
X190398000Y-118911714D01*
X190540857Y-118911714D01*
X190636095Y-118959333D01*
X191493238Y-119530761D02*
X191398000Y-119578380D01*
X191207523Y-119578380D01*
X191112285Y-119530761D01*
X191064666Y-119435523D01*
X191064666Y-119054571D01*
X191112285Y-118959333D01*
X191207523Y-118911714D01*
X191398000Y-118911714D01*
X191493238Y-118959333D01*
X191540857Y-119054571D01*
X191540857Y-119149809D01*
X191064666Y-119245047D01*
X192636095Y-118911714D02*
X192826571Y-119578380D01*
X193017047Y-119102190D01*
X193207523Y-119578380D01*
X193398000Y-118911714D01*
X193778952Y-119578380D02*
X193778952Y-118911714D01*
X193778952Y-118578380D02*
X193731333Y-118626000D01*
X193778952Y-118673619D01*
X193826571Y-118626000D01*
X193778952Y-118578380D01*
X193778952Y-118673619D01*
X194112285Y-118911714D02*
X194493238Y-118911714D01*
X194255142Y-118578380D02*
X194255142Y-119435523D01*
X194302761Y-119530761D01*
X194398000Y-119578380D01*
X194493238Y-119578380D01*
X194826571Y-119578380D02*
X194826571Y-118578380D01*
X195255142Y-119578380D02*
X195255142Y-119054571D01*
X195207523Y-118959333D01*
X195112285Y-118911714D01*
X194969428Y-118911714D01*
X194874190Y-118959333D01*
X194826571Y-119006952D01*
X196445619Y-118673619D02*
X196493238Y-118626000D01*
X196588476Y-118578380D01*
X196826571Y-118578380D01*
X196921809Y-118626000D01*
X196969428Y-118673619D01*
X197017047Y-118768857D01*
X197017047Y-118864095D01*
X196969428Y-119006952D01*
X196398000Y-119578380D01*
X197017047Y-119578380D01*
X197874190Y-118911714D02*
X197874190Y-119578380D01*
X197636095Y-118530761D02*
X197398000Y-119245047D01*
X198017047Y-119245047D01*
X198398000Y-119578380D02*
X198398000Y-118578380D01*
X198493238Y-119197428D02*
X198778952Y-119578380D01*
X198778952Y-118911714D02*
X198398000Y-119292666D01*
X199207523Y-119578380D02*
X199207523Y-118578380D01*
X199207523Y-119054571D02*
X199778952Y-119054571D01*
X199778952Y-119578380D02*
X199778952Y-118578380D01*
X200159904Y-118911714D02*
X200683714Y-118911714D01*
X200159904Y-119578380D01*
X200683714Y-119578380D01*
X201731333Y-118911714D02*
X201969428Y-119578380D01*
X202207523Y-118911714D01*
X203017047Y-118911714D02*
X203017047Y-119721238D01*
X202969428Y-119816476D01*
X202921809Y-119864095D01*
X202826571Y-119911714D01*
X202683714Y-119911714D01*
X202588476Y-119864095D01*
X203017047Y-119530761D02*
X202921809Y-119578380D01*
X202731333Y-119578380D01*
X202636095Y-119530761D01*
X202588476Y-119483142D01*
X202540857Y-119387904D01*
X202540857Y-119102190D01*
X202588476Y-119006952D01*
X202636095Y-118959333D01*
X202731333Y-118911714D01*
X202921809Y-118911714D01*
X203017047Y-118959333D01*
X203921809Y-119578380D02*
X203921809Y-119054571D01*
X203874190Y-118959333D01*
X203778952Y-118911714D01*
X203588476Y-118911714D01*
X203493238Y-118959333D01*
X203921809Y-119530761D02*
X203826571Y-119578380D01*
X203588476Y-119578380D01*
X203493238Y-119530761D01*
X203445619Y-119435523D01*
X203445619Y-119340285D01*
X203493238Y-119245047D01*
X203588476Y-119197428D01*
X203826571Y-119197428D01*
X203921809Y-119149809D01*
X205159904Y-119578380D02*
X205159904Y-118911714D01*
X205159904Y-119006952D02*
X205207523Y-118959333D01*
X205302761Y-118911714D01*
X205445619Y-118911714D01*
X205540857Y-118959333D01*
X205588476Y-119054571D01*
X205588476Y-119578380D01*
X205588476Y-119054571D02*
X205636095Y-118959333D01*
X205731333Y-118911714D01*
X205874190Y-118911714D01*
X205969428Y-118959333D01*
X206017047Y-119054571D01*
X206017047Y-119578380D01*
X206636095Y-119578380D02*
X206540857Y-119530761D01*
X206493238Y-119483142D01*
X206445619Y-119387904D01*
X206445619Y-119102190D01*
X206493238Y-119006952D01*
X206540857Y-118959333D01*
X206636095Y-118911714D01*
X206778952Y-118911714D01*
X206874190Y-118959333D01*
X206921809Y-119006952D01*
X206969428Y-119102190D01*
X206969428Y-119387904D01*
X206921809Y-119483142D01*
X206874190Y-119530761D01*
X206778952Y-119578380D01*
X206636095Y-119578380D01*
X207398000Y-118911714D02*
X207398000Y-119578380D01*
X207398000Y-119006952D02*
X207445619Y-118959333D01*
X207540857Y-118911714D01*
X207683714Y-118911714D01*
X207778952Y-118959333D01*
X207826571Y-119054571D01*
X207826571Y-119578380D01*
X208302761Y-119578380D02*
X208302761Y-118911714D01*
X208302761Y-118578380D02*
X208255142Y-118626000D01*
X208302761Y-118673619D01*
X208350380Y-118626000D01*
X208302761Y-118578380D01*
X208302761Y-118673619D01*
X208636095Y-118911714D02*
X209017047Y-118911714D01*
X208778952Y-118578380D02*
X208778952Y-119435523D01*
X208826571Y-119530761D01*
X208921809Y-119578380D01*
X209017047Y-119578380D01*
X209493238Y-119578380D02*
X209398000Y-119530761D01*
X209350380Y-119483142D01*
X209302761Y-119387904D01*
X209302761Y-119102190D01*
X209350380Y-119006952D01*
X209398000Y-118959333D01*
X209493238Y-118911714D01*
X209636095Y-118911714D01*
X209731333Y-118959333D01*
X209778952Y-119006952D01*
X209826571Y-119102190D01*
X209826571Y-119387904D01*
X209778952Y-119483142D01*
X209731333Y-119530761D01*
X209636095Y-119578380D01*
X209493238Y-119578380D01*
X210255142Y-119578380D02*
X210255142Y-118911714D01*
X210255142Y-119102190D02*
X210302761Y-119006952D01*
X210350380Y-118959333D01*
X210445619Y-118911714D01*
X210540857Y-118911714D01*
D11*
X189247142Y-93658571D02*
X189247142Y-95158571D01*
X189247142Y-93730000D02*
X189390000Y-93658571D01*
X189675714Y-93658571D01*
X189818571Y-93730000D01*
X189890000Y-93801428D01*
X189961428Y-93944285D01*
X189961428Y-94372857D01*
X189890000Y-94515714D01*
X189818571Y-94587142D01*
X189675714Y-94658571D01*
X189390000Y-94658571D01*
X189247142Y-94587142D01*
X191247142Y-94587142D02*
X191104285Y-94658571D01*
X190818571Y-94658571D01*
X190675714Y-94587142D01*
X190604285Y-94515714D01*
X190532857Y-94372857D01*
X190532857Y-93944285D01*
X190604285Y-93801428D01*
X190675714Y-93730000D01*
X190818571Y-93658571D01*
X191104285Y-93658571D01*
X191247142Y-93730000D01*
X192104285Y-93801428D02*
X191961428Y-93730000D01*
X191890000Y-93658571D01*
X191818571Y-93515714D01*
X191818571Y-93444285D01*
X191890000Y-93301428D01*
X191961428Y-93230000D01*
X192104285Y-93158571D01*
X192390000Y-93158571D01*
X192532857Y-93230000D01*
X192604285Y-93301428D01*
X192675714Y-93444285D01*
X192675714Y-93515714D01*
X192604285Y-93658571D01*
X192532857Y-93730000D01*
X192390000Y-93801428D01*
X192104285Y-93801428D01*
X191961428Y-93872857D01*
X191890000Y-93944285D01*
X191818571Y-94087142D01*
X191818571Y-94372857D01*
X191890000Y-94515714D01*
X191961428Y-94587142D01*
X192104285Y-94658571D01*
X192390000Y-94658571D01*
X192532857Y-94587142D01*
X192604285Y-94515714D01*
X192675714Y-94372857D01*
X192675714Y-94087142D01*
X192604285Y-93944285D01*
X192532857Y-93872857D01*
X192390000Y-93801428D01*
X193532857Y-93801428D02*
X193390000Y-93730000D01*
X193318571Y-93658571D01*
X193247142Y-93515714D01*
X193247142Y-93444285D01*
X193318571Y-93301428D01*
X193390000Y-93230000D01*
X193532857Y-93158571D01*
X193818571Y-93158571D01*
X193961428Y-93230000D01*
X194032857Y-93301428D01*
X194104285Y-93444285D01*
X194104285Y-93515714D01*
X194032857Y-93658571D01*
X193961428Y-93730000D01*
X193818571Y-93801428D01*
X193532857Y-93801428D01*
X193390000Y-93872857D01*
X193318571Y-93944285D01*
X193247142Y-94087142D01*
X193247142Y-94372857D01*
X193318571Y-94515714D01*
X193390000Y-94587142D01*
X193532857Y-94658571D01*
X193818571Y-94658571D01*
X193961428Y-94587142D01*
X194032857Y-94515714D01*
X194104285Y-94372857D01*
X194104285Y-94087142D01*
X194032857Y-93944285D01*
X193961428Y-93872857D01*
X193818571Y-93801428D01*
X194747142Y-94658571D02*
X194747142Y-93658571D01*
X194747142Y-93801428D02*
X194818571Y-93730000D01*
X194961428Y-93658571D01*
X195175714Y-93658571D01*
X195318571Y-93730000D01*
X195390000Y-93872857D01*
X195390000Y-94658571D01*
X195390000Y-93872857D02*
X195461428Y-93730000D01*
X195604285Y-93658571D01*
X195818571Y-93658571D01*
X195961428Y-93730000D01*
X196032857Y-93872857D01*
X196032857Y-94658571D01*
X196747142Y-94658571D02*
X196747142Y-93158571D01*
X196890000Y-94087142D02*
X197318571Y-94658571D01*
X197318571Y-93658571D02*
X196747142Y-94230000D01*
X197961428Y-94658571D02*
X197961428Y-93158571D01*
X198675714Y-94658571D02*
X198675714Y-93158571D01*
X200390000Y-93658571D02*
X200747142Y-94658571D01*
X201104285Y-93658571D01*
X202318571Y-93658571D02*
X202318571Y-94872857D01*
X202247142Y-95015714D01*
X202175714Y-95087142D01*
X202032857Y-95158571D01*
X201818571Y-95158571D01*
X201675714Y-95087142D01*
X202318571Y-94587142D02*
X202175714Y-94658571D01*
X201890000Y-94658571D01*
X201747142Y-94587142D01*
X201675714Y-94515714D01*
X201604285Y-94372857D01*
X201604285Y-93944285D01*
X201675714Y-93801428D01*
X201747142Y-93730000D01*
X201890000Y-93658571D01*
X202175714Y-93658571D01*
X202318571Y-93730000D01*
X203675714Y-94658571D02*
X203675714Y-93872857D01*
X203604285Y-93730000D01*
X203461428Y-93658571D01*
X203175714Y-93658571D01*
X203032857Y-93730000D01*
X203675714Y-94587142D02*
X203532857Y-94658571D01*
X203175714Y-94658571D01*
X203032857Y-94587142D01*
X202961428Y-94444285D01*
X202961428Y-94301428D01*
X203032857Y-94158571D01*
X203175714Y-94087142D01*
X203532857Y-94087142D01*
X203675714Y-94015714D01*
X205390000Y-93658571D02*
X205747142Y-94658571D01*
X206104285Y-93658571D01*
X207461428Y-94658571D02*
X206604285Y-94658571D01*
X207032857Y-94658571D02*
X207032857Y-93158571D01*
X206890000Y-93372857D01*
X206747142Y-93515714D01*
X206604285Y-93587142D01*
X208104285Y-94515714D02*
X208175714Y-94587142D01*
X208104285Y-94658571D01*
X208032857Y-94587142D01*
X208104285Y-94515714D01*
X208104285Y-94658571D01*
X208675714Y-93158571D02*
X209675714Y-93158571D01*
X209032857Y-94658571D01*
X187183714Y-122217571D02*
X187040857Y-122146142D01*
X186969428Y-122003285D01*
X186969428Y-120717571D01*
X188326571Y-122146142D02*
X188183714Y-122217571D01*
X187898000Y-122217571D01*
X187755142Y-122146142D01*
X187683714Y-122003285D01*
X187683714Y-121431857D01*
X187755142Y-121289000D01*
X187898000Y-121217571D01*
X188183714Y-121217571D01*
X188326571Y-121289000D01*
X188398000Y-121431857D01*
X188398000Y-121574714D01*
X187683714Y-121717571D01*
X189683714Y-122217571D02*
X189683714Y-121431857D01*
X189612285Y-121289000D01*
X189469428Y-121217571D01*
X189183714Y-121217571D01*
X189040857Y-121289000D01*
X189683714Y-122146142D02*
X189540857Y-122217571D01*
X189183714Y-122217571D01*
X189040857Y-122146142D01*
X188969428Y-122003285D01*
X188969428Y-121860428D01*
X189040857Y-121717571D01*
X189183714Y-121646142D01*
X189540857Y-121646142D01*
X189683714Y-121574714D01*
X191040857Y-122217571D02*
X191040857Y-120717571D01*
X191040857Y-122146142D02*
X190898000Y-122217571D01*
X190612285Y-122217571D01*
X190469428Y-122146142D01*
X190398000Y-122074714D01*
X190326571Y-121931857D01*
X190326571Y-121503285D01*
X190398000Y-121360428D01*
X190469428Y-121289000D01*
X190612285Y-121217571D01*
X190898000Y-121217571D01*
X191040857Y-121289000D01*
X192326571Y-122146142D02*
X192183714Y-122217571D01*
X191898000Y-122217571D01*
X191755142Y-122146142D01*
X191683714Y-122003285D01*
X191683714Y-121431857D01*
X191755142Y-121289000D01*
X191898000Y-121217571D01*
X192183714Y-121217571D01*
X192326571Y-121289000D01*
X192398000Y-121431857D01*
X192398000Y-121574714D01*
X191683714Y-121717571D01*
X193683714Y-122217571D02*
X193683714Y-120717571D01*
X193683714Y-122146142D02*
X193540857Y-122217571D01*
X193255142Y-122217571D01*
X193112285Y-122146142D01*
X193040857Y-122074714D01*
X192969428Y-121931857D01*
X192969428Y-121503285D01*
X193040857Y-121360428D01*
X193112285Y-121289000D01*
X193255142Y-121217571D01*
X193540857Y-121217571D01*
X193683714Y-121289000D01*
X194326571Y-122146142D02*
X194469428Y-122217571D01*
X194755142Y-122217571D01*
X194898000Y-122146142D01*
X194969428Y-122003285D01*
X194969428Y-121931857D01*
X194898000Y-121789000D01*
X194755142Y-121717571D01*
X194540857Y-121717571D01*
X194398000Y-121646142D01*
X194326571Y-121503285D01*
X194326571Y-121431857D01*
X194398000Y-121289000D01*
X194540857Y-121217571D01*
X194755142Y-121217571D01*
X194898000Y-121289000D01*
X195826571Y-122217571D02*
X195683714Y-122146142D01*
X195612285Y-122074714D01*
X195540857Y-121931857D01*
X195540857Y-121503285D01*
X195612285Y-121360428D01*
X195683714Y-121289000D01*
X195826571Y-121217571D01*
X196040857Y-121217571D01*
X196183714Y-121289000D01*
X196255142Y-121360428D01*
X196326571Y-121503285D01*
X196326571Y-121931857D01*
X196255142Y-122074714D01*
X196183714Y-122146142D01*
X196040857Y-122217571D01*
X195826571Y-122217571D01*
X197183714Y-122217571D02*
X197040857Y-122146142D01*
X196969428Y-122003285D01*
X196969428Y-120717571D01*
X198398000Y-122217571D02*
X198398000Y-120717571D01*
X198398000Y-122146142D02*
X198255142Y-122217571D01*
X197969428Y-122217571D01*
X197826571Y-122146142D01*
X197755142Y-122074714D01*
X197683714Y-121931857D01*
X197683714Y-121503285D01*
X197755142Y-121360428D01*
X197826571Y-121289000D01*
X197969428Y-121217571D01*
X198255142Y-121217571D01*
X198398000Y-121289000D01*
X199683714Y-122146142D02*
X199540857Y-122217571D01*
X199255142Y-122217571D01*
X199112285Y-122146142D01*
X199040857Y-122003285D01*
X199040857Y-121431857D01*
X199112285Y-121289000D01*
X199255142Y-121217571D01*
X199540857Y-121217571D01*
X199683714Y-121289000D01*
X199755142Y-121431857D01*
X199755142Y-121574714D01*
X199040857Y-121717571D01*
X200397999Y-122217571D02*
X200397999Y-121217571D01*
X200397999Y-121503285D02*
X200469428Y-121360428D01*
X200540857Y-121289000D01*
X200683714Y-121217571D01*
X200826571Y-121217571D01*
X201326571Y-122074714D02*
X201398000Y-122146142D01*
X201326571Y-122217571D01*
X201255142Y-122146142D01*
X201326571Y-122074714D01*
X201326571Y-122217571D01*
X202683714Y-122146142D02*
X202540857Y-122217571D01*
X202255142Y-122217571D01*
X202112285Y-122146142D01*
X202040857Y-122074714D01*
X201969428Y-121931857D01*
X201969428Y-121503285D01*
X202040857Y-121360428D01*
X202112285Y-121289000D01*
X202255142Y-121217571D01*
X202540857Y-121217571D01*
X202683714Y-121289000D01*
X203540857Y-122217571D02*
X203398000Y-122146142D01*
X203326571Y-122074714D01*
X203255142Y-121931857D01*
X203255142Y-121503285D01*
X203326571Y-121360428D01*
X203398000Y-121289000D01*
X203540857Y-121217571D01*
X203755142Y-121217571D01*
X203898000Y-121289000D01*
X203969428Y-121360428D01*
X204040857Y-121503285D01*
X204040857Y-121931857D01*
X203969428Y-122074714D01*
X203898000Y-122146142D01*
X203755142Y-122217571D01*
X203540857Y-122217571D01*
X204683714Y-122217571D02*
X204683714Y-121217571D01*
X204683714Y-121360428D02*
X204755142Y-121289000D01*
X204898000Y-121217571D01*
X205112285Y-121217571D01*
X205255142Y-121289000D01*
X205326571Y-121431857D01*
X205326571Y-122217571D01*
X205326571Y-121431857D02*
X205398000Y-121289000D01*
X205540857Y-121217571D01*
X205755142Y-121217571D01*
X205898000Y-121289000D01*
X205969428Y-121431857D01*
X205969428Y-122217571D01*
X207755142Y-120860428D02*
X207826571Y-120789000D01*
X207969428Y-120717571D01*
X208326571Y-120717571D01*
X208469428Y-120789000D01*
X208540857Y-120860428D01*
X208612285Y-121003285D01*
X208612285Y-121146142D01*
X208540857Y-121360428D01*
X207683714Y-122217571D01*
X208612285Y-122217571D01*
X209540857Y-120717571D02*
X209683714Y-120717571D01*
X209826571Y-120789000D01*
X209898000Y-120860428D01*
X209969428Y-121003285D01*
X210040857Y-121289000D01*
X210040857Y-121646142D01*
X209969428Y-121931857D01*
X209898000Y-122074714D01*
X209826571Y-122146142D01*
X209683714Y-122217571D01*
X209540857Y-122217571D01*
X209398000Y-122146142D01*
X209326571Y-122074714D01*
X209255142Y-121931857D01*
X209183714Y-121646142D01*
X209183714Y-121289000D01*
X209255142Y-121003285D01*
X209326571Y-120860428D01*
X209398000Y-120789000D01*
X209540857Y-120717571D01*
X210612285Y-120860428D02*
X210683714Y-120789000D01*
X210826571Y-120717571D01*
X211183714Y-120717571D01*
X211326571Y-120789000D01*
X211398000Y-120860428D01*
X211469428Y-121003285D01*
X211469428Y-121146142D01*
X211398000Y-121360428D01*
X210540857Y-122217571D01*
X211469428Y-122217571D01*
X212898000Y-122217571D02*
X212040857Y-122217571D01*
X212469428Y-122217571D02*
X212469428Y-120717571D01*
X212326571Y-120931857D01*
X212183714Y-121074714D01*
X212040857Y-121146142D01*
D12*
X191015252Y-102047000D02*
X190492748Y-102047000D01*
X191015252Y-100627000D02*
X190492748Y-100627000D01*
X191024252Y-111200000D02*
X190501748Y-111200000D01*
X191024252Y-109780000D02*
X190501748Y-109780000D01*
X191006252Y-106628000D02*
X190483748Y-106628000D01*
X191006252Y-105208000D02*
X190483748Y-105208000D01*
D13*
X162382200Y-99288600D02*
X168783000Y-99288600D01*
X162382200Y-116103400D02*
X162382200Y-99288600D01*
X168783000Y-116103400D02*
X162382200Y-116103400D01*
X168783000Y-99288600D02*
X168783000Y-116103400D01*
X168529000Y-91973400D02*
X185013600Y-91973400D01*
X168529000Y-123418600D02*
X168529000Y-91973400D01*
X185013600Y-123418600D02*
X168529000Y-123418600D01*
X185013600Y-91973400D02*
X185013600Y-123418600D01*
X162382200Y-122351800D02*
X168529000Y-122351800D01*
X162382200Y-118287800D02*
X162382200Y-122351800D01*
X168529000Y-118287800D02*
X162382200Y-118287800D01*
X162382200Y-97104200D02*
X168529000Y-97104200D01*
X162382200Y-93040200D02*
X162382200Y-97104200D01*
X168656000Y-93040200D02*
X162382200Y-93040200D01*
D12*
X188894000Y-102772000D02*
X188894000Y-104492000D01*
X188894000Y-104492000D02*
X192614000Y-104492000D01*
X192614000Y-104492000D02*
X192614000Y-102772000D01*
X192614000Y-102772000D02*
X188894000Y-102772000D01*
X187824000Y-103632000D02*
X188894000Y-103632000D01*
X193684000Y-103632000D02*
X192614000Y-103632000D01*
X193684000Y-112776000D02*
X192614000Y-112776000D01*
X187824000Y-112776000D02*
X188894000Y-112776000D01*
X192614000Y-111916000D02*
X188894000Y-111916000D01*
X192614000Y-113636000D02*
X192614000Y-111916000D01*
X188894000Y-113636000D02*
X192614000Y-113636000D01*
X188894000Y-111916000D02*
X188894000Y-113636000D01*
X188894000Y-107344000D02*
X188894000Y-109064000D01*
X188894000Y-109064000D02*
X192614000Y-109064000D01*
X192614000Y-109064000D02*
X192614000Y-107344000D01*
X192614000Y-107344000D02*
X188894000Y-107344000D01*
X187824000Y-108204000D02*
X188894000Y-108204000D01*
X193684000Y-108204000D02*
X192614000Y-108204000D01*
D14*
X195930000Y-97315000D02*
X195930000Y-106615000D01*
X195930000Y-117315000D02*
X195930000Y-108015000D01*
D15*
X202130000Y-96715000D02*
G75*
G03*
X202130000Y-96715000I-100000J0D01*
G01*
D14*
X214430000Y-97315000D02*
X195930000Y-97315000D01*
X214430000Y-117315000D02*
X214430000Y-97315000D01*
X195930000Y-117315000D02*
X214430000Y-117315000D01*
D16*
X193635333Y-101703142D02*
X193587714Y-101750761D01*
X193444857Y-101798380D01*
X193349619Y-101798380D01*
X193206761Y-101750761D01*
X193111523Y-101655523D01*
X193063904Y-101560285D01*
X193016285Y-101369809D01*
X193016285Y-101226952D01*
X193063904Y-101036476D01*
X193111523Y-100941238D01*
X193206761Y-100846000D01*
X193349619Y-100798380D01*
X193444857Y-100798380D01*
X193587714Y-100846000D01*
X193635333Y-100893619D01*
X193968666Y-100798380D02*
X194587714Y-100798380D01*
X194254380Y-101179333D01*
X194397238Y-101179333D01*
X194492476Y-101226952D01*
X194540095Y-101274571D01*
X194587714Y-101369809D01*
X194587714Y-101607904D01*
X194540095Y-101703142D01*
X194492476Y-101750761D01*
X194397238Y-101798380D01*
X194111523Y-101798380D01*
X194016285Y-101750761D01*
X193968666Y-101703142D01*
X193635333Y-110847142D02*
X193587714Y-110894761D01*
X193444857Y-110942380D01*
X193349619Y-110942380D01*
X193206761Y-110894761D01*
X193111523Y-110799523D01*
X193063904Y-110704285D01*
X193016285Y-110513809D01*
X193016285Y-110370952D01*
X193063904Y-110180476D01*
X193111523Y-110085238D01*
X193206761Y-109990000D01*
X193349619Y-109942380D01*
X193444857Y-109942380D01*
X193587714Y-109990000D01*
X193635333Y-110037619D01*
X194016285Y-110037619D02*
X194063904Y-109990000D01*
X194159142Y-109942380D01*
X194397238Y-109942380D01*
X194492476Y-109990000D01*
X194540095Y-110037619D01*
X194587714Y-110132857D01*
X194587714Y-110228095D01*
X194540095Y-110370952D01*
X193968666Y-110942380D01*
X194587714Y-110942380D01*
X193762333Y-106402142D02*
X193714714Y-106449761D01*
X193571857Y-106497380D01*
X193476619Y-106497380D01*
X193333761Y-106449761D01*
X193238523Y-106354523D01*
X193190904Y-106259285D01*
X193143285Y-106068809D01*
X193143285Y-105925952D01*
X193190904Y-105735476D01*
X193238523Y-105640238D01*
X193333761Y-105545000D01*
X193476619Y-105497380D01*
X193571857Y-105497380D01*
X193714714Y-105545000D01*
X193762333Y-105592619D01*
X194714714Y-106497380D02*
X194143285Y-106497380D01*
X194429000Y-106497380D02*
X194429000Y-105497380D01*
X194333761Y-105640238D01*
X194238523Y-105735476D01*
X194143285Y-105783095D01*
M02*
