G04 #@! TF.GenerationSoftware,KiCad,Pcbnew,8.0.7*
G04 #@! TF.CreationDate,2025-02-16T23:41:52-07:00*
G04 #@! TF.ProjectId,PC8801mkII VGA,50433838-3031-46d6-9b49-49205647412e,rev?*
G04 #@! TF.SameCoordinates,Original*
G04 #@! TF.FileFunction,Legend,Bot*
G04 #@! TF.FilePolarity,Positive*
%FSLAX46Y46*%
G04 Gerber Fmt 4.6, Leading zero omitted, Abs format (unit mm)*
G04 Created by KiCad (PCBNEW 8.0.7) date 2025-02-16 23:41:52*
%MOMM*%
%LPD*%
G01*
G04 APERTURE LIST*
%ADD10C,0.150000*%
G04 APERTURE END LIST*
D10*
X202228220Y-100286569D02*
X202228220Y-99619902D01*
X202228220Y-99810378D02*
X202180601Y-99715140D01*
X202180601Y-99715140D02*
X202132982Y-99667521D01*
X202132982Y-99667521D02*
X202037744Y-99619902D01*
X202037744Y-99619902D02*
X201942506Y-99619902D01*
X202958458Y-104619902D02*
X202720363Y-105286569D01*
X202720363Y-105286569D02*
X202482268Y-104619902D01*
X202148934Y-105238950D02*
X202053696Y-105286569D01*
X202053696Y-105286569D02*
X201863220Y-105286569D01*
X201863220Y-105286569D02*
X201767982Y-105238950D01*
X201767982Y-105238950D02*
X201720363Y-105143711D01*
X201720363Y-105143711D02*
X201720363Y-105096092D01*
X201720363Y-105096092D02*
X201767982Y-105000854D01*
X201767982Y-105000854D02*
X201863220Y-104953235D01*
X201863220Y-104953235D02*
X202006077Y-104953235D01*
X202006077Y-104953235D02*
X202101315Y-104905616D01*
X202101315Y-104905616D02*
X202148934Y-104810378D01*
X202148934Y-104810378D02*
X202148934Y-104762759D01*
X202148934Y-104762759D02*
X202101315Y-104667521D01*
X202101315Y-104667521D02*
X202006077Y-104619902D01*
X202006077Y-104619902D02*
X201863220Y-104619902D01*
X201863220Y-104619902D02*
X201767982Y-104667521D01*
G36*
X181446235Y-114990930D02*
G01*
X180504615Y-114990930D01*
X180504615Y-114790187D01*
X180615726Y-114790187D01*
X180615726Y-114819451D01*
X180626925Y-114846487D01*
X180647617Y-114867179D01*
X180674653Y-114878378D01*
X180689285Y-114879819D01*
X181260713Y-114879819D01*
X181275345Y-114878378D01*
X181302381Y-114867179D01*
X181323073Y-114846487D01*
X181334272Y-114819451D01*
X181334272Y-114790187D01*
X181323073Y-114763151D01*
X181302381Y-114742459D01*
X181275345Y-114731260D01*
X181260713Y-114729819D01*
X181049999Y-114729819D01*
X181049999Y-114033504D01*
X181112442Y-114095947D01*
X181118192Y-114100667D01*
X181119491Y-114102164D01*
X181121745Y-114103583D01*
X181123807Y-114105275D01*
X181125639Y-114106033D01*
X181131934Y-114109996D01*
X181227172Y-114157615D01*
X181240903Y-114162870D01*
X181270093Y-114164944D01*
X181297855Y-114155690D01*
X181319962Y-114136517D01*
X181333050Y-114110342D01*
X181335124Y-114081152D01*
X181325870Y-114053391D01*
X181306697Y-114031283D01*
X181294254Y-114023451D01*
X181209902Y-113981275D01*
X181128521Y-113899894D01*
X181037403Y-113763216D01*
X181037368Y-113763173D01*
X181037359Y-113763151D01*
X181037307Y-113763099D01*
X181028087Y-113751841D01*
X181021917Y-113747709D01*
X181016667Y-113742459D01*
X181009877Y-113739646D01*
X181003772Y-113735558D01*
X180996491Y-113734101D01*
X180989631Y-113731260D01*
X180982283Y-113731260D01*
X180975078Y-113729819D01*
X180967794Y-113731260D01*
X180960367Y-113731260D01*
X180953578Y-113734072D01*
X180946370Y-113735498D01*
X180940191Y-113739617D01*
X180933331Y-113742459D01*
X180928135Y-113747654D01*
X180922021Y-113751731D01*
X180917889Y-113757900D01*
X180912639Y-113763151D01*
X180909826Y-113769940D01*
X180905738Y-113776046D01*
X180904281Y-113783326D01*
X180901440Y-113790187D01*
X180900014Y-113804663D01*
X180899999Y-113804740D01*
X180900004Y-113804766D01*
X180899999Y-113804819D01*
X180899999Y-114729819D01*
X180689285Y-114729819D01*
X180674653Y-114731260D01*
X180647617Y-114742459D01*
X180626925Y-114763151D01*
X180615726Y-114790187D01*
X180504615Y-114790187D01*
X180504615Y-113618708D01*
X181446235Y-113618708D01*
X181446235Y-114990930D01*
G37*
X201799649Y-114619902D02*
X201799649Y-115429426D01*
X201799649Y-115429426D02*
X201847268Y-115524664D01*
X201847268Y-115524664D02*
X201894887Y-115572283D01*
X201894887Y-115572283D02*
X201990125Y-115619902D01*
X201990125Y-115619902D02*
X202132982Y-115619902D01*
X202132982Y-115619902D02*
X202228220Y-115572283D01*
X201799649Y-115238950D02*
X201894887Y-115286569D01*
X201894887Y-115286569D02*
X202085363Y-115286569D01*
X202085363Y-115286569D02*
X202180601Y-115238950D01*
X202180601Y-115238950D02*
X202228220Y-115191330D01*
X202228220Y-115191330D02*
X202275839Y-115096092D01*
X202275839Y-115096092D02*
X202275839Y-114810378D01*
X202275839Y-114810378D02*
X202228220Y-114715140D01*
X202228220Y-114715140D02*
X202180601Y-114667521D01*
X202180601Y-114667521D02*
X202085363Y-114619902D01*
X202085363Y-114619902D02*
X201894887Y-114619902D01*
X201894887Y-114619902D02*
X201799649Y-114667521D01*
X176111792Y-101469819D02*
X176683220Y-101469819D01*
X176397506Y-101469819D02*
X176397506Y-100469819D01*
X176397506Y-100469819D02*
X176492744Y-100612676D01*
X176492744Y-100612676D02*
X176587982Y-100707914D01*
X176587982Y-100707914D02*
X176683220Y-100755533D01*
X175207030Y-100469819D02*
X175683220Y-100469819D01*
X175683220Y-100469819D02*
X175730839Y-100946009D01*
X175730839Y-100946009D02*
X175683220Y-100898390D01*
X175683220Y-100898390D02*
X175587982Y-100850771D01*
X175587982Y-100850771D02*
X175349887Y-100850771D01*
X175349887Y-100850771D02*
X175254649Y-100898390D01*
X175254649Y-100898390D02*
X175207030Y-100946009D01*
X175207030Y-100946009D02*
X175159411Y-101041247D01*
X175159411Y-101041247D02*
X175159411Y-101279342D01*
X175159411Y-101279342D02*
X175207030Y-101374580D01*
X175207030Y-101374580D02*
X175254649Y-101422200D01*
X175254649Y-101422200D02*
X175349887Y-101469819D01*
X175349887Y-101469819D02*
X175587982Y-101469819D01*
X175587982Y-101469819D02*
X175683220Y-101422200D01*
X175683220Y-101422200D02*
X175730839Y-101374580D01*
X199688220Y-107819819D02*
X199688220Y-106819819D01*
X199688220Y-107200771D02*
X199592982Y-107153152D01*
X199592982Y-107153152D02*
X199402506Y-107153152D01*
X199402506Y-107153152D02*
X199307268Y-107200771D01*
X199307268Y-107200771D02*
X199259649Y-107248390D01*
X199259649Y-107248390D02*
X199212030Y-107343628D01*
X199212030Y-107343628D02*
X199212030Y-107629342D01*
X199212030Y-107629342D02*
X199259649Y-107724580D01*
X199259649Y-107724580D02*
X199307268Y-107772200D01*
X199307268Y-107772200D02*
X199402506Y-107819819D01*
X199402506Y-107819819D02*
X199592982Y-107819819D01*
X199592982Y-107819819D02*
X199688220Y-107772200D01*
X202863220Y-110286569D02*
X202863220Y-109286569D01*
X202434649Y-110286569D02*
X202434649Y-109762759D01*
X202434649Y-109762759D02*
X202482268Y-109667521D01*
X202482268Y-109667521D02*
X202577506Y-109619902D01*
X202577506Y-109619902D02*
X202720363Y-109619902D01*
X202720363Y-109619902D02*
X202815601Y-109667521D01*
X202815601Y-109667521D02*
X202863220Y-109715140D01*
X202006077Y-110238950D02*
X201910839Y-110286569D01*
X201910839Y-110286569D02*
X201720363Y-110286569D01*
X201720363Y-110286569D02*
X201625125Y-110238950D01*
X201625125Y-110238950D02*
X201577506Y-110143711D01*
X201577506Y-110143711D02*
X201577506Y-110096092D01*
X201577506Y-110096092D02*
X201625125Y-110000854D01*
X201625125Y-110000854D02*
X201720363Y-109953235D01*
X201720363Y-109953235D02*
X201863220Y-109953235D01*
X201863220Y-109953235D02*
X201958458Y-109905616D01*
X201958458Y-109905616D02*
X202006077Y-109810378D01*
X202006077Y-109810378D02*
X202006077Y-109762759D01*
X202006077Y-109762759D02*
X201958458Y-109667521D01*
X201958458Y-109667521D02*
X201863220Y-109619902D01*
X201863220Y-109619902D02*
X201720363Y-109619902D01*
X201720363Y-109619902D02*
X201625125Y-109667521D01*
M02*
