G04 #@! TF.GenerationSoftware,KiCad,Pcbnew,(5.1.8-0-10_14)*
G04 #@! TF.CreationDate,2021-12-04T19:30:23-07:00*
G04 #@! TF.ProjectId,PC8801mkII VGA,50433838-3031-46d6-9b49-49205647412e,rev?*
G04 #@! TF.SameCoordinates,Original*
G04 #@! TF.FileFunction,Legend,Bot*
G04 #@! TF.FilePolarity,Positive*
%FSLAX46Y46*%
G04 Gerber Fmt 4.6, Leading zero omitted, Abs format (unit mm)*
G04 Created by KiCad (PCBNEW (5.1.8-0-10_14)) date 2021-12-04 19:30:23*
%MOMM*%
%LPD*%
G01*
G04 APERTURE LIST*
%ADD10C,0.300000*%
%ADD11C,0.162500*%
G04 APERTURE END LIST*
D10*
X192107142Y-106064857D02*
X191892857Y-106136285D01*
X191821428Y-106207714D01*
X191750000Y-106350571D01*
X191750000Y-106564857D01*
X191821428Y-106707714D01*
X191892857Y-106779142D01*
X192035714Y-106850571D01*
X192607142Y-106850571D01*
X192607142Y-105350571D01*
X192107142Y-105350571D01*
X191964285Y-105422000D01*
X191892857Y-105493428D01*
X191821428Y-105636285D01*
X191821428Y-105779142D01*
X191892857Y-105922000D01*
X191964285Y-105993428D01*
X192107142Y-106064857D01*
X192607142Y-106064857D01*
X190892857Y-106850571D02*
X191035714Y-106779142D01*
X191107142Y-106636285D01*
X191107142Y-105350571D01*
X189678571Y-105850571D02*
X189678571Y-106850571D01*
X190321428Y-105850571D02*
X190321428Y-106636285D01*
X190250000Y-106779142D01*
X190107142Y-106850571D01*
X189892857Y-106850571D01*
X189750000Y-106779142D01*
X189678571Y-106707714D01*
X188392857Y-106779142D02*
X188535714Y-106850571D01*
X188821428Y-106850571D01*
X188964285Y-106779142D01*
X189035714Y-106636285D01*
X189035714Y-106064857D01*
X188964285Y-105922000D01*
X188821428Y-105850571D01*
X188535714Y-105850571D01*
X188392857Y-105922000D01*
X188321428Y-106064857D01*
X188321428Y-106207714D01*
X189035714Y-106350571D01*
X192535714Y-109994000D02*
X192678571Y-109922571D01*
X192892857Y-109922571D01*
X193107142Y-109994000D01*
X193250000Y-110136857D01*
X193321428Y-110279714D01*
X193392857Y-110565428D01*
X193392857Y-110779714D01*
X193321428Y-111065428D01*
X193250000Y-111208285D01*
X193107142Y-111351142D01*
X192892857Y-111422571D01*
X192750000Y-111422571D01*
X192535714Y-111351142D01*
X192464285Y-111279714D01*
X192464285Y-110779714D01*
X192750000Y-110779714D01*
X191821428Y-111422571D02*
X191821428Y-110422571D01*
X191821428Y-110708285D02*
X191750000Y-110565428D01*
X191678571Y-110494000D01*
X191535714Y-110422571D01*
X191392857Y-110422571D01*
X190321428Y-111351142D02*
X190464285Y-111422571D01*
X190750000Y-111422571D01*
X190892857Y-111351142D01*
X190964285Y-111208285D01*
X190964285Y-110636857D01*
X190892857Y-110494000D01*
X190750000Y-110422571D01*
X190464285Y-110422571D01*
X190321428Y-110494000D01*
X190250000Y-110636857D01*
X190250000Y-110779714D01*
X190964285Y-110922571D01*
X189035714Y-111351142D02*
X189178571Y-111422571D01*
X189464285Y-111422571D01*
X189607142Y-111351142D01*
X189678571Y-111208285D01*
X189678571Y-110636857D01*
X189607142Y-110494000D01*
X189464285Y-110422571D01*
X189178571Y-110422571D01*
X189035714Y-110494000D01*
X188964285Y-110636857D01*
X188964285Y-110779714D01*
X189678571Y-110922571D01*
X188321428Y-110422571D02*
X188321428Y-111422571D01*
X188321428Y-110565428D02*
X188250000Y-110494000D01*
X188107142Y-110422571D01*
X187892857Y-110422571D01*
X187750000Y-110494000D01*
X187678571Y-110636857D01*
X187678571Y-111422571D01*
X191357142Y-102278571D02*
X191857142Y-101564285D01*
X192214285Y-102278571D02*
X192214285Y-100778571D01*
X191642857Y-100778571D01*
X191500000Y-100850000D01*
X191428571Y-100921428D01*
X191357142Y-101064285D01*
X191357142Y-101278571D01*
X191428571Y-101421428D01*
X191500000Y-101492857D01*
X191642857Y-101564285D01*
X192214285Y-101564285D01*
X190142857Y-102207142D02*
X190285714Y-102278571D01*
X190571428Y-102278571D01*
X190714285Y-102207142D01*
X190785714Y-102064285D01*
X190785714Y-101492857D01*
X190714285Y-101350000D01*
X190571428Y-101278571D01*
X190285714Y-101278571D01*
X190142857Y-101350000D01*
X190071428Y-101492857D01*
X190071428Y-101635714D01*
X190785714Y-101778571D01*
X188785714Y-102278571D02*
X188785714Y-100778571D01*
X188785714Y-102207142D02*
X188928571Y-102278571D01*
X189214285Y-102278571D01*
X189357142Y-102207142D01*
X189428571Y-102135714D01*
X189500000Y-101992857D01*
X189500000Y-101564285D01*
X189428571Y-101421428D01*
X189357142Y-101350000D01*
X189214285Y-101278571D01*
X188928571Y-101278571D01*
X188785714Y-101350000D01*
D11*
X176399809Y-101894047D02*
X176771238Y-101894047D01*
X176585523Y-101894047D02*
X176585523Y-101244047D01*
X176647428Y-101336904D01*
X176709333Y-101398809D01*
X176771238Y-101429761D01*
X175811714Y-101244047D02*
X176121238Y-101244047D01*
X176152190Y-101553571D01*
X176121238Y-101522619D01*
X176059333Y-101491666D01*
X175904571Y-101491666D01*
X175842666Y-101522619D01*
X175811714Y-101553571D01*
X175780761Y-101615476D01*
X175780761Y-101770238D01*
X175811714Y-101832142D01*
X175842666Y-101863095D01*
X175904571Y-101894047D01*
X176059333Y-101894047D01*
X176121238Y-101863095D01*
X176152190Y-101832142D01*
X182694285Y-114594047D02*
X183065714Y-114594047D01*
X182880000Y-114594047D02*
X182880000Y-113944047D01*
X182941904Y-114036904D01*
X183003809Y-114098809D01*
X183065714Y-114129761D01*
D10*
X205405714Y-94658571D02*
X206262857Y-94658571D01*
X205834285Y-94658571D02*
X205834285Y-93158571D01*
X205977142Y-93372857D01*
X206120000Y-93515714D01*
X206262857Y-93587142D01*
X204048571Y-93158571D02*
X204762857Y-93158571D01*
X204834285Y-93872857D01*
X204762857Y-93801428D01*
X204620000Y-93730000D01*
X204262857Y-93730000D01*
X204120000Y-93801428D01*
X204048571Y-93872857D01*
X203977142Y-94015714D01*
X203977142Y-94372857D01*
X204048571Y-94515714D01*
X204120000Y-94587142D01*
X204262857Y-94658571D01*
X204620000Y-94658571D01*
X204762857Y-94587142D01*
X204834285Y-94515714D01*
X203048571Y-93158571D02*
X202905714Y-93158571D01*
X202762857Y-93230000D01*
X202691428Y-93301428D01*
X202620000Y-93444285D01*
X202548571Y-93730000D01*
X202548571Y-94087142D01*
X202620000Y-94372857D01*
X202691428Y-94515714D01*
X202762857Y-94587142D01*
X202905714Y-94658571D01*
X203048571Y-94658571D01*
X203191428Y-94587142D01*
X203262857Y-94515714D01*
X203334285Y-94372857D01*
X203405714Y-94087142D01*
X203405714Y-93730000D01*
X203334285Y-93444285D01*
X203262857Y-93301428D01*
X203191428Y-93230000D01*
X203048571Y-93158571D01*
X201977142Y-94658571D02*
X201620000Y-94658571D01*
X201620000Y-94372857D01*
X201762857Y-94301428D01*
X201905714Y-94158571D01*
X201977142Y-93944285D01*
X201977142Y-93587142D01*
X201905714Y-93372857D01*
X201762857Y-93230000D01*
X201548571Y-93158571D01*
X201262857Y-93158571D01*
X201048571Y-93230000D01*
X200905714Y-93372857D01*
X200834285Y-93587142D01*
X200834285Y-93944285D01*
X200905714Y-94158571D01*
X201048571Y-94301428D01*
X201191428Y-94372857D01*
X201191428Y-94658571D01*
X200834285Y-94658571D01*
X199048571Y-94658571D02*
X199048571Y-93658571D01*
X199048571Y-93944285D02*
X198977142Y-93801428D01*
X198905714Y-93730000D01*
X198762857Y-93658571D01*
X198620000Y-93658571D01*
X197548571Y-94587142D02*
X197691428Y-94658571D01*
X197977142Y-94658571D01*
X198120000Y-94587142D01*
X198191428Y-94444285D01*
X198191428Y-93872857D01*
X198120000Y-93730000D01*
X197977142Y-93658571D01*
X197691428Y-93658571D01*
X197548571Y-93730000D01*
X197477142Y-93872857D01*
X197477142Y-94015714D01*
X198191428Y-94158571D01*
X196905714Y-94587142D02*
X196762857Y-94658571D01*
X196477142Y-94658571D01*
X196334285Y-94587142D01*
X196262857Y-94444285D01*
X196262857Y-94372857D01*
X196334285Y-94230000D01*
X196477142Y-94158571D01*
X196691428Y-94158571D01*
X196834285Y-94087142D01*
X196905714Y-93944285D01*
X196905714Y-93872857D01*
X196834285Y-93730000D01*
X196691428Y-93658571D01*
X196477142Y-93658571D01*
X196334285Y-93730000D01*
X195620000Y-94658571D02*
X195620000Y-93658571D01*
X195620000Y-93158571D02*
X195691428Y-93230000D01*
X195620000Y-93301428D01*
X195548571Y-93230000D01*
X195620000Y-93158571D01*
X195620000Y-93301428D01*
X194977142Y-94587142D02*
X194834285Y-94658571D01*
X194548571Y-94658571D01*
X194405714Y-94587142D01*
X194334285Y-94444285D01*
X194334285Y-94372857D01*
X194405714Y-94230000D01*
X194548571Y-94158571D01*
X194762857Y-94158571D01*
X194905714Y-94087142D01*
X194977142Y-93944285D01*
X194977142Y-93872857D01*
X194905714Y-93730000D01*
X194762857Y-93658571D01*
X194548571Y-93658571D01*
X194405714Y-93730000D01*
X193905714Y-93658571D02*
X193334285Y-93658571D01*
X193691428Y-93158571D02*
X193691428Y-94444285D01*
X193620000Y-94587142D01*
X193477142Y-94658571D01*
X193334285Y-94658571D01*
X192620000Y-94658571D02*
X192762857Y-94587142D01*
X192834285Y-94515714D01*
X192905714Y-94372857D01*
X192905714Y-93944285D01*
X192834285Y-93801428D01*
X192762857Y-93730000D01*
X192620000Y-93658571D01*
X192405714Y-93658571D01*
X192262857Y-93730000D01*
X192191428Y-93801428D01*
X192120000Y-93944285D01*
X192120000Y-94372857D01*
X192191428Y-94515714D01*
X192262857Y-94587142D01*
X192405714Y-94658571D01*
X192620000Y-94658571D01*
X191477142Y-94658571D02*
X191477142Y-93658571D01*
X191477142Y-93944285D02*
X191405714Y-93801428D01*
X191334285Y-93730000D01*
X191191428Y-93658571D01*
X191048571Y-93658571D01*
X190620000Y-94587142D02*
X190477142Y-94658571D01*
X190191428Y-94658571D01*
X190048571Y-94587142D01*
X189977142Y-94444285D01*
X189977142Y-94372857D01*
X190048571Y-94230000D01*
X190191428Y-94158571D01*
X190405714Y-94158571D01*
X190548571Y-94087142D01*
X190620000Y-93944285D01*
X190620000Y-93872857D01*
X190548571Y-93730000D01*
X190405714Y-93658571D01*
X190191428Y-93658571D01*
X190048571Y-93730000D01*
M02*
