G04 #@! TF.GenerationSoftware,KiCad,Pcbnew,(5.1.8-0-10_14)*
G04 #@! TF.CreationDate,2021-12-04T19:30:23-07:00*
G04 #@! TF.ProjectId,PC8801mkII VGA,50433838-3031-46d6-9b49-49205647412e,rev?*
G04 #@! TF.SameCoordinates,Original*
G04 #@! TF.FileFunction,Soldermask,Top*
G04 #@! TF.FilePolarity,Negative*
%FSLAX46Y46*%
G04 Gerber Fmt 4.6, Leading zero omitted, Abs format (unit mm)*
G04 Created by KiCad (PCBNEW (5.1.8-0-10_14)) date 2021-12-04 19:30:23*
%MOMM*%
%LPD*%
G01*
G04 APERTURE LIST*
%ADD10C,2.051000*%
%ADD11C,4.210000*%
%ADD12O,1.800000X1.800000*%
%ADD13C,1.800000*%
%ADD14C,2.350000*%
%ADD15C,2.800000*%
G04 APERTURE END LIST*
G36*
G01*
X190504000Y-100773955D02*
X190504000Y-101900045D01*
G75*
G02*
X190167045Y-102237000I-336955J0D01*
G01*
X189290955Y-102237000D01*
G75*
G02*
X188954000Y-101900045I0J336955D01*
G01*
X188954000Y-100773955D01*
G75*
G02*
X189290955Y-100437000I336955J0D01*
G01*
X190167045Y-100437000D01*
G75*
G02*
X190504000Y-100773955I0J-336955D01*
G01*
G37*
G36*
G01*
X192554000Y-100773955D02*
X192554000Y-101900045D01*
G75*
G02*
X192217045Y-102237000I-336955J0D01*
G01*
X191340955Y-102237000D01*
G75*
G02*
X191004000Y-101900045I0J336955D01*
G01*
X191004000Y-100773955D01*
G75*
G02*
X191340955Y-100437000I336955J0D01*
G01*
X192217045Y-100437000D01*
G75*
G02*
X192554000Y-100773955I0J-336955D01*
G01*
G37*
G36*
G01*
X190513000Y-109926955D02*
X190513000Y-111053045D01*
G75*
G02*
X190176045Y-111390000I-336955J0D01*
G01*
X189299955Y-111390000D01*
G75*
G02*
X188963000Y-111053045I0J336955D01*
G01*
X188963000Y-109926955D01*
G75*
G02*
X189299955Y-109590000I336955J0D01*
G01*
X190176045Y-109590000D01*
G75*
G02*
X190513000Y-109926955I0J-336955D01*
G01*
G37*
G36*
G01*
X192563000Y-109926955D02*
X192563000Y-111053045D01*
G75*
G02*
X192226045Y-111390000I-336955J0D01*
G01*
X191349955Y-111390000D01*
G75*
G02*
X191013000Y-111053045I0J336955D01*
G01*
X191013000Y-109926955D01*
G75*
G02*
X191349955Y-109590000I336955J0D01*
G01*
X192226045Y-109590000D01*
G75*
G02*
X192563000Y-109926955I0J-336955D01*
G01*
G37*
G36*
G01*
X190495000Y-105354955D02*
X190495000Y-106481045D01*
G75*
G02*
X190158045Y-106818000I-336955J0D01*
G01*
X189281955Y-106818000D01*
G75*
G02*
X188945000Y-106481045I0J336955D01*
G01*
X188945000Y-105354955D01*
G75*
G02*
X189281955Y-105018000I336955J0D01*
G01*
X190158045Y-105018000D01*
G75*
G02*
X190495000Y-105354955I0J-336955D01*
G01*
G37*
G36*
G01*
X192545000Y-105354955D02*
X192545000Y-106481045D01*
G75*
G02*
X192208045Y-106818000I-336955J0D01*
G01*
X191331955Y-106818000D01*
G75*
G02*
X190995000Y-106481045I0J336955D01*
G01*
X190995000Y-105354955D01*
G75*
G02*
X191331955Y-105018000I336955J0D01*
G01*
X192208045Y-105018000D01*
G75*
G02*
X192545000Y-105354955I0J-336955D01*
G01*
G37*
D10*
X177927000Y-103124000D03*
X177927000Y-105414000D03*
X177927000Y-107704001D03*
X177927000Y-109993999D03*
X177927000Y-112283999D03*
X180467000Y-104267000D03*
X180467000Y-106557000D03*
X180467000Y-108847001D03*
X180467000Y-111136999D03*
X180467000Y-113426999D03*
X183007000Y-103124000D03*
X183007000Y-105414064D03*
X183007000Y-107704128D03*
X183007000Y-109994192D03*
X183007000Y-112284256D03*
D11*
X180467000Y-95072200D03*
X180467000Y-120319800D03*
D12*
X194564000Y-103632000D03*
D13*
X186944000Y-103632000D03*
X186944000Y-112776000D03*
D12*
X194564000Y-112776000D03*
X194564000Y-108204000D03*
D13*
X186944000Y-108204000D03*
D14*
X201930000Y-107315000D03*
X199430000Y-109815000D03*
X201930000Y-102315000D03*
X199430000Y-104815000D03*
X201930000Y-112315000D03*
X211930000Y-109815000D03*
X211930000Y-104815000D03*
X199430000Y-99815000D03*
X199430000Y-114815000D03*
X196930000Y-107315000D03*
D15*
X206930000Y-114815000D03*
X206930000Y-99815000D03*
M02*
