G04 #@! TF.GenerationSoftware,KiCad,Pcbnew,8.0.7*
G04 #@! TF.CreationDate,2025-02-16T23:41:52-07:00*
G04 #@! TF.ProjectId,PC8801mkII VGA,50433838-3031-46d6-9b49-49205647412e,rev?*
G04 #@! TF.SameCoordinates,Original*
G04 #@! TF.FileFunction,Soldermask,Bot*
G04 #@! TF.FilePolarity,Negative*
%FSLAX46Y46*%
G04 Gerber Fmt 4.6, Leading zero omitted, Abs format (unit mm)*
G04 Created by KiCad (PCBNEW 8.0.7) date 2025-02-16 23:41:52*
%MOMM*%
%LPD*%
G01*
G04 APERTURE LIST*
%ADD10C,2.800000*%
%ADD11C,2.350000*%
%ADD12C,2.051000*%
%ADD13C,4.210000*%
%ADD14C,2.000000*%
%ADD15O,2.000000X2.000000*%
G04 APERTURE END LIST*
D10*
X206930000Y-114815000D03*
X206930000Y-99815000D03*
D11*
X201930000Y-102315000D03*
X201930000Y-107315000D03*
X201930000Y-112315000D03*
X199430000Y-104815000D03*
X199430000Y-109815000D03*
X199430000Y-99815000D03*
X199430000Y-114815000D03*
X196930000Y-107315000D03*
X211930000Y-109815000D03*
X211930000Y-104815000D03*
D12*
X180975000Y-112284256D03*
X180975000Y-109994192D03*
X180975000Y-107704128D03*
X180975000Y-105414064D03*
X180975000Y-103124000D03*
X178435000Y-113426999D03*
X178435000Y-111136999D03*
X178435000Y-108847001D03*
X178435000Y-106557000D03*
X178435000Y-104267000D03*
X175895000Y-112283999D03*
X175895000Y-109993999D03*
X175895000Y-107704001D03*
X175895000Y-105414000D03*
X175895000Y-103124000D03*
D13*
X178435000Y-95072200D03*
X178435000Y-120319800D03*
D14*
X186690000Y-118110000D03*
X184190000Y-118110000D03*
X184150000Y-107315000D03*
D15*
X194310000Y-107315000D03*
D14*
X186650000Y-103505000D03*
X184150000Y-103505000D03*
X184150000Y-100330000D03*
D15*
X194310000Y-100330000D03*
D14*
X184150000Y-114300000D03*
D15*
X194310000Y-114300000D03*
D14*
X186670000Y-110490000D03*
X184170000Y-110490000D03*
M02*
