G04 #@! TF.GenerationSoftware,KiCad,Pcbnew,8.0.7*
G04 #@! TF.CreationDate,2025-02-16T23:41:52-07:00*
G04 #@! TF.ProjectId,PC8801mkII VGA,50433838-3031-46d6-9b49-49205647412e,rev?*
G04 #@! TF.SameCoordinates,Original*
G04 #@! TF.FileFunction,Copper,L1,Top*
G04 #@! TF.FilePolarity,Positive*
%FSLAX46Y46*%
G04 Gerber Fmt 4.6, Leading zero omitted, Abs format (unit mm)*
G04 Created by KiCad (PCBNEW 8.0.7) date 2025-02-16 23:41:52*
%MOMM*%
%LPD*%
G01*
G04 APERTURE LIST*
G04 #@! TA.AperFunction,ComponentPad*
%ADD10C,1.950000*%
G04 #@! TD*
G04 #@! TA.AperFunction,ComponentPad*
%ADD11C,1.651000*%
G04 #@! TD*
G04 #@! TA.AperFunction,ComponentPad*
%ADD12C,3.810000*%
G04 #@! TD*
G04 #@! TA.AperFunction,ComponentPad*
%ADD13C,1.600000*%
G04 #@! TD*
G04 #@! TA.AperFunction,ComponentPad*
%ADD14O,1.600000X1.600000*%
G04 #@! TD*
G04 #@! TA.AperFunction,Conductor*
%ADD15C,0.500000*%
G04 #@! TD*
G04 APERTURE END LIST*
D10*
X201930000Y-102315000D03*
X201930000Y-107315000D03*
X201930000Y-112315000D03*
X199430000Y-104815000D03*
X199430000Y-109815000D03*
X199430000Y-99815000D03*
X199430000Y-114815000D03*
X196930000Y-107315000D03*
X211930000Y-109815000D03*
X211930000Y-104815000D03*
D11*
X180975000Y-112284256D03*
X180975000Y-109994192D03*
X180975000Y-107704128D03*
X180975000Y-105414064D03*
X180975000Y-103124000D03*
X178435000Y-113426999D03*
X178435000Y-111136999D03*
X178435000Y-108847001D03*
X178435000Y-106557000D03*
X178435000Y-104267000D03*
X175895000Y-112283999D03*
X175895000Y-109993999D03*
X175895000Y-107704001D03*
X175895000Y-105414000D03*
X175895000Y-103124000D03*
D12*
X178435000Y-95072200D03*
X178435000Y-120319800D03*
D13*
X186690000Y-118110000D03*
X184190000Y-118110000D03*
X184150000Y-107315000D03*
D14*
X194310000Y-107315000D03*
D13*
X186650000Y-103505000D03*
X184150000Y-103505000D03*
X184150000Y-100330000D03*
D14*
X194310000Y-100330000D03*
D13*
X184150000Y-114300000D03*
D14*
X194310000Y-114300000D03*
D13*
X186670000Y-110490000D03*
X184170000Y-110490000D03*
D15*
X196930000Y-107315000D02*
X194310000Y-107315000D01*
X194825000Y-99815000D02*
X194310000Y-100330000D01*
X199430000Y-99815000D02*
X194825000Y-99815000D01*
X199430000Y-114815000D02*
X194825000Y-114815000D01*
X194825000Y-114815000D02*
X194310000Y-114300000D01*
X196880256Y-119380000D02*
X200855000Y-115405255D01*
X174619500Y-108979501D02*
X175895000Y-107704001D01*
X200855000Y-115405255D02*
X200855000Y-113255255D01*
X174619500Y-113024500D02*
X174619500Y-108979501D01*
X200855000Y-113255255D02*
X199430000Y-111830255D01*
X196880256Y-119380000D02*
X180975000Y-119380000D01*
X180975000Y-119380000D02*
X174619500Y-113024500D01*
X199430000Y-111830255D02*
X199430000Y-109815000D01*
X174619500Y-102565500D02*
X174619500Y-104138500D01*
X178795000Y-98390000D02*
X174619500Y-102565500D01*
X174619500Y-104138500D02*
X175895000Y-105414000D01*
X200020255Y-98390000D02*
X178795000Y-98390000D01*
X199430000Y-102799745D02*
X201295000Y-100934745D01*
X199430000Y-104815000D02*
X199430000Y-102799745D01*
X201295000Y-99664745D02*
X200020255Y-98390000D01*
X201295000Y-100934745D02*
X201295000Y-99664745D01*
X184150000Y-103505000D02*
X187920000Y-107275000D01*
X186800744Y-112284256D02*
X180975000Y-112284256D01*
X187920000Y-111165000D02*
X186800744Y-112284256D01*
X187920000Y-107275000D02*
X187920000Y-111165000D01*
X179699500Y-112812586D02*
X179699500Y-111765500D01*
X179699500Y-111765500D02*
X179710500Y-111754500D01*
X179710500Y-111754500D02*
X179710500Y-111258692D01*
X184190000Y-117303086D02*
X179699500Y-112812586D01*
X184190000Y-118110000D02*
X184190000Y-117303086D01*
X179710500Y-111258692D02*
X180975000Y-109994192D01*
X183760872Y-110490000D02*
X180975000Y-107704128D01*
X184170000Y-110490000D02*
X183760872Y-110490000D01*
X184150000Y-100330000D02*
X184150000Y-101005000D01*
X184150000Y-101005000D02*
X186650000Y-103505000D01*
X186690000Y-118110000D02*
X186690000Y-116840000D01*
X186690000Y-116840000D02*
X184150000Y-114300000D01*
X184150000Y-107315000D02*
X184150000Y-107970000D01*
X184150000Y-107970000D02*
X186670000Y-110490000D01*
M02*
