G04 #@! TF.GenerationSoftware,KiCad,Pcbnew,8.0.7*
G04 #@! TF.CreationDate,2025-02-16T23:41:52-07:00*
G04 #@! TF.ProjectId,PC8801mkII VGA,50433838-3031-46d6-9b49-49205647412e,rev?*
G04 #@! TF.SameCoordinates,Original*
G04 #@! TF.FileFunction,Copper,L2,Bot*
G04 #@! TF.FilePolarity,Positive*
%FSLAX46Y46*%
G04 Gerber Fmt 4.6, Leading zero omitted, Abs format (unit mm)*
G04 Created by KiCad (PCBNEW 8.0.7) date 2025-02-16 23:41:52*
%MOMM*%
%LPD*%
G01*
G04 APERTURE LIST*
G04 #@! TA.AperFunction,ComponentPad*
%ADD10C,1.950000*%
G04 #@! TD*
G04 #@! TA.AperFunction,ComponentPad*
%ADD11C,1.651000*%
G04 #@! TD*
G04 #@! TA.AperFunction,ComponentPad*
%ADD12C,3.810000*%
G04 #@! TD*
G04 #@! TA.AperFunction,ComponentPad*
%ADD13C,1.600000*%
G04 #@! TD*
G04 #@! TA.AperFunction,ComponentPad*
%ADD14O,1.600000X1.600000*%
G04 #@! TD*
G04 APERTURE END LIST*
D10*
X201930000Y-102315000D03*
X201930000Y-107315000D03*
X201930000Y-112315000D03*
X199430000Y-104815000D03*
X199430000Y-109815000D03*
X199430000Y-99815000D03*
X199430000Y-114815000D03*
X196930000Y-107315000D03*
X211930000Y-109815000D03*
X211930000Y-104815000D03*
D11*
X180975000Y-112284256D03*
X180975000Y-109994192D03*
X180975000Y-107704128D03*
X180975000Y-105414064D03*
X180975000Y-103124000D03*
X178435000Y-113426999D03*
X178435000Y-111136999D03*
X178435000Y-108847001D03*
X178435000Y-106557000D03*
X178435000Y-104267000D03*
X175895000Y-112283999D03*
X175895000Y-109993999D03*
X175895000Y-107704001D03*
X175895000Y-105414000D03*
X175895000Y-103124000D03*
D12*
X178435000Y-95072200D03*
X178435000Y-120319800D03*
D13*
X186690000Y-118110000D03*
X184190000Y-118110000D03*
X184150000Y-107315000D03*
D14*
X194310000Y-107315000D03*
D13*
X186650000Y-103505000D03*
X184150000Y-103505000D03*
X184150000Y-100330000D03*
D14*
X194310000Y-100330000D03*
D13*
X184150000Y-114300000D03*
D14*
X194310000Y-114300000D03*
D13*
X186670000Y-110490000D03*
X184170000Y-110490000D03*
G04 #@! TA.AperFunction,Conductor*
G36*
X212728801Y-91515730D02*
G01*
X212757245Y-91517450D01*
X213014466Y-91533009D01*
X213029547Y-91534840D01*
X213307305Y-91585741D01*
X213322057Y-91589377D01*
X213591655Y-91673386D01*
X213605867Y-91678776D01*
X213863359Y-91794665D01*
X213876827Y-91801734D01*
X213945984Y-91843540D01*
X214118481Y-91947817D01*
X214130988Y-91956450D01*
X214353271Y-92130598D01*
X214364659Y-92140688D01*
X214564311Y-92340340D01*
X214574401Y-92351728D01*
X214748543Y-92574003D01*
X214757187Y-92586526D01*
X214903265Y-92828172D01*
X214910335Y-92841643D01*
X215026218Y-93099121D01*
X215031614Y-93113349D01*
X215115619Y-93382932D01*
X215119260Y-93397705D01*
X215170157Y-93675440D01*
X215171991Y-93690544D01*
X215189270Y-93976197D01*
X215189500Y-93983805D01*
X215189500Y-121916194D01*
X215189270Y-121923802D01*
X215171991Y-122209455D01*
X215170157Y-122224559D01*
X215119260Y-122502294D01*
X215115619Y-122517067D01*
X215031614Y-122786650D01*
X215026218Y-122800878D01*
X214910335Y-123058356D01*
X214903265Y-123071827D01*
X214757187Y-123313473D01*
X214748543Y-123325996D01*
X214574401Y-123548271D01*
X214564311Y-123559659D01*
X214364659Y-123759311D01*
X214353271Y-123769401D01*
X214130996Y-123943543D01*
X214118473Y-123952187D01*
X213876827Y-124098265D01*
X213863356Y-124105335D01*
X213605878Y-124221218D01*
X213591650Y-124226614D01*
X213322067Y-124310619D01*
X213307294Y-124314260D01*
X213029559Y-124365157D01*
X213014455Y-124366991D01*
X212728802Y-124384270D01*
X212721194Y-124384500D01*
X174191500Y-124384500D01*
X174123379Y-124364498D01*
X174076886Y-124310842D01*
X174065500Y-124258500D01*
X174065500Y-118110000D01*
X182876502Y-118110000D01*
X182896457Y-118338087D01*
X182955716Y-118559243D01*
X183052477Y-118766749D01*
X183183802Y-118954300D01*
X183345700Y-119116198D01*
X183533251Y-119247523D01*
X183740757Y-119344284D01*
X183961913Y-119403543D01*
X184190000Y-119423498D01*
X184418087Y-119403543D01*
X184639243Y-119344284D01*
X184846749Y-119247523D01*
X185034300Y-119116198D01*
X185196198Y-118954300D01*
X185327523Y-118766749D01*
X185327523Y-118766748D01*
X185327525Y-118766746D01*
X185330274Y-118761985D01*
X185332245Y-118763122D01*
X185372713Y-118717154D01*
X185440989Y-118697687D01*
X185508951Y-118718223D01*
X185547822Y-118763083D01*
X185549726Y-118761985D01*
X185552474Y-118766746D01*
X185683799Y-118954296D01*
X185683802Y-118954300D01*
X185845700Y-119116198D01*
X186033251Y-119247523D01*
X186240757Y-119344284D01*
X186461913Y-119403543D01*
X186690000Y-119423498D01*
X186918087Y-119403543D01*
X187139243Y-119344284D01*
X187346749Y-119247523D01*
X187534300Y-119116198D01*
X187696198Y-118954300D01*
X187827523Y-118766749D01*
X187924284Y-118559243D01*
X187983543Y-118338087D01*
X188003498Y-118110000D01*
X187983543Y-117881913D01*
X187924284Y-117660757D01*
X187827523Y-117453251D01*
X187696198Y-117265700D01*
X187534300Y-117103802D01*
X187346749Y-116972477D01*
X187139246Y-116875717D01*
X187139240Y-116875715D01*
X187045771Y-116850670D01*
X186918087Y-116816457D01*
X186690000Y-116796502D01*
X186461913Y-116816457D01*
X186240759Y-116875715D01*
X186240753Y-116875717D01*
X186033250Y-116972477D01*
X185845703Y-117103799D01*
X185845697Y-117103804D01*
X185683804Y-117265697D01*
X185683799Y-117265703D01*
X185552474Y-117453253D01*
X185549726Y-117458015D01*
X185547761Y-117456880D01*
X185507255Y-117502865D01*
X185438974Y-117522312D01*
X185371018Y-117501756D01*
X185332168Y-117456921D01*
X185330274Y-117458015D01*
X185327525Y-117453253D01*
X185196200Y-117265703D01*
X185196195Y-117265697D01*
X185034302Y-117103804D01*
X185034296Y-117103799D01*
X184846749Y-116972477D01*
X184639246Y-116875717D01*
X184639240Y-116875715D01*
X184545771Y-116850670D01*
X184418087Y-116816457D01*
X184190000Y-116796502D01*
X183961913Y-116816457D01*
X183740759Y-116875715D01*
X183740753Y-116875717D01*
X183533250Y-116972477D01*
X183345703Y-117103799D01*
X183345697Y-117103804D01*
X183183804Y-117265697D01*
X183183799Y-117265703D01*
X183052477Y-117453250D01*
X182955717Y-117660753D01*
X182955716Y-117660757D01*
X182896457Y-117881913D01*
X182876502Y-118110000D01*
X174065500Y-118110000D01*
X174065500Y-114300000D01*
X182836502Y-114300000D01*
X182856457Y-114528087D01*
X182915716Y-114749243D01*
X183012477Y-114956749D01*
X183143802Y-115144300D01*
X183305700Y-115306198D01*
X183493251Y-115437523D01*
X183700757Y-115534284D01*
X183921913Y-115593543D01*
X184150000Y-115613498D01*
X184378087Y-115593543D01*
X184599243Y-115534284D01*
X184806749Y-115437523D01*
X184994300Y-115306198D01*
X185156198Y-115144300D01*
X185287523Y-114956749D01*
X185384284Y-114749243D01*
X185443543Y-114528087D01*
X185463498Y-114300000D01*
X192996502Y-114300000D01*
X193016457Y-114528087D01*
X193075716Y-114749243D01*
X193172477Y-114956749D01*
X193303802Y-115144300D01*
X193465700Y-115306198D01*
X193653251Y-115437523D01*
X193860757Y-115534284D01*
X194081913Y-115593543D01*
X194310000Y-115613498D01*
X194538087Y-115593543D01*
X194759243Y-115534284D01*
X194966749Y-115437523D01*
X195154300Y-115306198D01*
X195316198Y-115144300D01*
X195447523Y-114956749D01*
X195513621Y-114815000D01*
X197941416Y-114815000D01*
X197961718Y-115060017D01*
X197961719Y-115060023D01*
X198022071Y-115298340D01*
X198022072Y-115298342D01*
X198120829Y-115523488D01*
X198255298Y-115729307D01*
X198421809Y-115910187D01*
X198608609Y-116055579D01*
X198615821Y-116061192D01*
X198615822Y-116061193D01*
X198832043Y-116178206D01*
X198832045Y-116178207D01*
X198954131Y-116220118D01*
X199064574Y-116258034D01*
X199307074Y-116298500D01*
X199307078Y-116298500D01*
X199552922Y-116298500D01*
X199552926Y-116298500D01*
X199795426Y-116258034D01*
X200027957Y-116178206D01*
X200244178Y-116061193D01*
X200438191Y-115910187D01*
X200604702Y-115729307D01*
X200739171Y-115523488D01*
X200837928Y-115298342D01*
X200876938Y-115144296D01*
X200898280Y-115060023D01*
X200898281Y-115060017D01*
X200898281Y-115060016D01*
X200898282Y-115060013D01*
X200918584Y-114815000D01*
X200909125Y-114700843D01*
X205479500Y-114700843D01*
X205479500Y-114929157D01*
X205515216Y-115154660D01*
X205585769Y-115371799D01*
X205689421Y-115575228D01*
X205689423Y-115575231D01*
X205823622Y-115759939D01*
X205985060Y-115921377D01*
X205985063Y-115921379D01*
X206169772Y-116055579D01*
X206373201Y-116159231D01*
X206590340Y-116229784D01*
X206815843Y-116265500D01*
X206815846Y-116265500D01*
X207044154Y-116265500D01*
X207044157Y-116265500D01*
X207269660Y-116229784D01*
X207486799Y-116159231D01*
X207690228Y-116055579D01*
X207874937Y-115921379D01*
X208036379Y-115759937D01*
X208170579Y-115575228D01*
X208274231Y-115371799D01*
X208344784Y-115154660D01*
X208380500Y-114929157D01*
X208380500Y-114700843D01*
X208344784Y-114475340D01*
X208274231Y-114258201D01*
X208170579Y-114054772D01*
X208036379Y-113870063D01*
X208036377Y-113870060D01*
X207874939Y-113708622D01*
X207690231Y-113574423D01*
X207690230Y-113574422D01*
X207690228Y-113574421D01*
X207486799Y-113470769D01*
X207269660Y-113400216D01*
X207044157Y-113364500D01*
X206815843Y-113364500D01*
X206590340Y-113400216D01*
X206590337Y-113400216D01*
X206590336Y-113400217D01*
X206373201Y-113470769D01*
X206373199Y-113470770D01*
X206169768Y-113574423D01*
X205985060Y-113708622D01*
X205823622Y-113870060D01*
X205689423Y-114054768D01*
X205689421Y-114054772D01*
X205585769Y-114258201D01*
X205515216Y-114475340D01*
X205479500Y-114700843D01*
X200909125Y-114700843D01*
X200898282Y-114569987D01*
X200898281Y-114569982D01*
X200898280Y-114569976D01*
X200837928Y-114331659D01*
X200837928Y-114331658D01*
X200739171Y-114106512D01*
X200604702Y-113900693D01*
X200438191Y-113719813D01*
X200244178Y-113568807D01*
X200244177Y-113568806D01*
X200027956Y-113451793D01*
X200027954Y-113451792D01*
X199795430Y-113371967D01*
X199795423Y-113371965D01*
X199691638Y-113354647D01*
X199552926Y-113331500D01*
X199307074Y-113331500D01*
X199185716Y-113351751D01*
X199064576Y-113371965D01*
X199064569Y-113371967D01*
X198832045Y-113451792D01*
X198832043Y-113451793D01*
X198615822Y-113568806D01*
X198615821Y-113568807D01*
X198421806Y-113719815D01*
X198255297Y-113900693D01*
X198120829Y-114106512D01*
X198022071Y-114331659D01*
X197961719Y-114569976D01*
X197961718Y-114569982D01*
X197941416Y-114815000D01*
X195513621Y-114815000D01*
X195544284Y-114749243D01*
X195603543Y-114528087D01*
X195623498Y-114300000D01*
X195603543Y-114071913D01*
X195544284Y-113850757D01*
X195447523Y-113643251D01*
X195316198Y-113455700D01*
X195154300Y-113293802D01*
X195062190Y-113229306D01*
X194966749Y-113162477D01*
X194759246Y-113065717D01*
X194759240Y-113065715D01*
X194601643Y-113023487D01*
X194538087Y-113006457D01*
X194310000Y-112986502D01*
X194081913Y-113006457D01*
X193860759Y-113065715D01*
X193860753Y-113065717D01*
X193653250Y-113162477D01*
X193465703Y-113293799D01*
X193465697Y-113293804D01*
X193303804Y-113455697D01*
X193303799Y-113455703D01*
X193172477Y-113643250D01*
X193075717Y-113850753D01*
X193075715Y-113850759D01*
X193021051Y-114054768D01*
X193016457Y-114071913D01*
X192996502Y-114300000D01*
X185463498Y-114300000D01*
X185443543Y-114071913D01*
X185384284Y-113850757D01*
X185287523Y-113643251D01*
X185156198Y-113455700D01*
X184994300Y-113293802D01*
X184902190Y-113229306D01*
X184806749Y-113162477D01*
X184599246Y-113065717D01*
X184599240Y-113065715D01*
X184441643Y-113023487D01*
X184378087Y-113006457D01*
X184150000Y-112986502D01*
X183921913Y-113006457D01*
X183700759Y-113065715D01*
X183700753Y-113065717D01*
X183493250Y-113162477D01*
X183305703Y-113293799D01*
X183305697Y-113293804D01*
X183143804Y-113455697D01*
X183143799Y-113455703D01*
X183012477Y-113643250D01*
X182915717Y-113850753D01*
X182915715Y-113850759D01*
X182861051Y-114054768D01*
X182856457Y-114071913D01*
X182836502Y-114300000D01*
X174065500Y-114300000D01*
X174065500Y-103124000D01*
X174555904Y-103124000D01*
X174576248Y-103356535D01*
X174636660Y-103581995D01*
X174636662Y-103582000D01*
X174735308Y-103793546D01*
X174735309Y-103793548D01*
X174869186Y-103984745D01*
X174869190Y-103984750D01*
X174869193Y-103984754D01*
X175034246Y-104149807D01*
X175034252Y-104149811D01*
X175057068Y-104165788D01*
X175101396Y-104221245D01*
X175108704Y-104291865D01*
X175076673Y-104355225D01*
X175057068Y-104372212D01*
X175034252Y-104388188D01*
X175034243Y-104388195D01*
X174869195Y-104553243D01*
X174869186Y-104553254D01*
X174735309Y-104744451D01*
X174735308Y-104744453D01*
X174636662Y-104955999D01*
X174636660Y-104956004D01*
X174576248Y-105181464D01*
X174555904Y-105414000D01*
X174576248Y-105646535D01*
X174636660Y-105871995D01*
X174636661Y-105871998D01*
X174636691Y-105872062D01*
X174735308Y-106083546D01*
X174735309Y-106083548D01*
X174869186Y-106274745D01*
X174869190Y-106274750D01*
X174869193Y-106274754D01*
X175034246Y-106439807D01*
X175057067Y-106455787D01*
X175101396Y-106511243D01*
X175108705Y-106581863D01*
X175076675Y-106645223D01*
X175057072Y-106662210D01*
X175034246Y-106678194D01*
X175034243Y-106678196D01*
X174869190Y-106843250D01*
X174869186Y-106843255D01*
X174735309Y-107034452D01*
X174735308Y-107034454D01*
X174636662Y-107246000D01*
X174636660Y-107246005D01*
X174576248Y-107471465D01*
X174555904Y-107704001D01*
X174576248Y-107936536D01*
X174599547Y-108023487D01*
X174636661Y-108161999D01*
X174668047Y-108229306D01*
X174735308Y-108373547D01*
X174735309Y-108373549D01*
X174869186Y-108564746D01*
X174869190Y-108564751D01*
X174869193Y-108564755D01*
X174982644Y-108678206D01*
X175034246Y-108729808D01*
X175057066Y-108745787D01*
X175101394Y-108801244D01*
X175108703Y-108871864D01*
X175076672Y-108935224D01*
X175057066Y-108952213D01*
X175034246Y-108968191D01*
X174869190Y-109133248D01*
X174869186Y-109133253D01*
X174735309Y-109324450D01*
X174735308Y-109324452D01*
X174636662Y-109535998D01*
X174636660Y-109536003D01*
X174576248Y-109761463D01*
X174555904Y-109993999D01*
X174576248Y-110226534D01*
X174636660Y-110451994D01*
X174636662Y-110451999D01*
X174735308Y-110663545D01*
X174735309Y-110663547D01*
X174869186Y-110854744D01*
X174869190Y-110854749D01*
X174869193Y-110854753D01*
X175034246Y-111019806D01*
X175038659Y-111022896D01*
X175057068Y-111035787D01*
X175101396Y-111091244D01*
X175108704Y-111161864D01*
X175076673Y-111225224D01*
X175057068Y-111242211D01*
X175034252Y-111258187D01*
X175034243Y-111258194D01*
X174869195Y-111423242D01*
X174869186Y-111423253D01*
X174735309Y-111614450D01*
X174735308Y-111614452D01*
X174636662Y-111825998D01*
X174636660Y-111826003D01*
X174576248Y-112051463D01*
X174555904Y-112283999D01*
X174576248Y-112516534D01*
X174636660Y-112741994D01*
X174636661Y-112741997D01*
X174636781Y-112742254D01*
X174735308Y-112953545D01*
X174735309Y-112953547D01*
X174869186Y-113144744D01*
X174869190Y-113144749D01*
X174869193Y-113144753D01*
X175034246Y-113309806D01*
X175034250Y-113309809D01*
X175034254Y-113309812D01*
X175123021Y-113371967D01*
X175225452Y-113443690D01*
X175437002Y-113542338D01*
X175662468Y-113602751D01*
X175895000Y-113623095D01*
X176127532Y-113602751D01*
X176352998Y-113542338D01*
X176564548Y-113443690D01*
X176755754Y-113309806D01*
X176920807Y-113144753D01*
X177054691Y-112953547D01*
X177153339Y-112741997D01*
X177213752Y-112516531D01*
X177234096Y-112283999D01*
X177213752Y-112051467D01*
X177153339Y-111826001D01*
X177054691Y-111614451D01*
X176920807Y-111423245D01*
X176755754Y-111258192D01*
X176732931Y-111242211D01*
X176688604Y-111186756D01*
X176681295Y-111116136D01*
X176713325Y-111052776D01*
X176732930Y-111035786D01*
X176755754Y-111019806D01*
X176920807Y-110854753D01*
X177054691Y-110663547D01*
X177153339Y-110451997D01*
X177213752Y-110226531D01*
X177234096Y-109993999D01*
X177213752Y-109761467D01*
X177153339Y-109536001D01*
X177054691Y-109324451D01*
X176920948Y-109133446D01*
X176920813Y-109133253D01*
X176920809Y-109133248D01*
X176920807Y-109133245D01*
X176755754Y-108968192D01*
X176755752Y-108968190D01*
X176755748Y-108968187D01*
X176732935Y-108952214D01*
X176688606Y-108896758D01*
X176681295Y-108826138D01*
X176713325Y-108762778D01*
X176732935Y-108745786D01*
X176755567Y-108729939D01*
X176755754Y-108729808D01*
X176920807Y-108564755D01*
X177054691Y-108373549D01*
X177153339Y-108161999D01*
X177213752Y-107936533D01*
X177234096Y-107704001D01*
X177220035Y-107543286D01*
X177234023Y-107473683D01*
X177283422Y-107422691D01*
X177352548Y-107406500D01*
X177419454Y-107430252D01*
X177434650Y-107443211D01*
X177574246Y-107582807D01*
X177574250Y-107582810D01*
X177574254Y-107582813D01*
X177683346Y-107659200D01*
X177765452Y-107716691D01*
X177977002Y-107815339D01*
X178202468Y-107875752D01*
X178435000Y-107896096D01*
X178667532Y-107875752D01*
X178892998Y-107815339D01*
X179104548Y-107716691D01*
X179295754Y-107582807D01*
X179435364Y-107443196D01*
X179497672Y-107409174D01*
X179568488Y-107414238D01*
X179625324Y-107456785D01*
X179650135Y-107523305D01*
X179649977Y-107543273D01*
X179648512Y-107560017D01*
X179635904Y-107704127D01*
X179656248Y-107936663D01*
X179716660Y-108162123D01*
X179716662Y-108162128D01*
X179815308Y-108373674D01*
X179815309Y-108373676D01*
X179949186Y-108564873D01*
X179949190Y-108564878D01*
X179949193Y-108564882D01*
X180062517Y-108678206D01*
X180114246Y-108729935D01*
X180137113Y-108745947D01*
X180181441Y-108801405D01*
X180188750Y-108872024D01*
X180156719Y-108935384D01*
X180137113Y-108952373D01*
X180114246Y-108968384D01*
X179949190Y-109133441D01*
X179949186Y-109133446D01*
X179815309Y-109324643D01*
X179815308Y-109324645D01*
X179716662Y-109536191D01*
X179716660Y-109536196D01*
X179656248Y-109761656D01*
X179635904Y-109994192D01*
X179656248Y-110226727D01*
X179716660Y-110452187D01*
X179716662Y-110452192D01*
X179815308Y-110663738D01*
X179815309Y-110663740D01*
X179949186Y-110854937D01*
X179949190Y-110854942D01*
X179949193Y-110854946D01*
X180033487Y-110939240D01*
X180114246Y-111019999D01*
X180137113Y-111036011D01*
X180181441Y-111091469D01*
X180188750Y-111162088D01*
X180156719Y-111225448D01*
X180137113Y-111242437D01*
X180114246Y-111258448D01*
X179949190Y-111423505D01*
X179949186Y-111423510D01*
X179815309Y-111614707D01*
X179815308Y-111614709D01*
X179716662Y-111826255D01*
X179716660Y-111826260D01*
X179656248Y-112051720D01*
X179635904Y-112284256D01*
X179656248Y-112516791D01*
X179716660Y-112742251D01*
X179716661Y-112742254D01*
X179742815Y-112798342D01*
X179815308Y-112953802D01*
X179815309Y-112953804D01*
X179949186Y-113145001D01*
X179949190Y-113145006D01*
X179949193Y-113145010D01*
X180114246Y-113310063D01*
X180114250Y-113310066D01*
X180114254Y-113310069D01*
X180202654Y-113371967D01*
X180305452Y-113443947D01*
X180517002Y-113542595D01*
X180742468Y-113603008D01*
X180975000Y-113623352D01*
X181207532Y-113603008D01*
X181432998Y-113542595D01*
X181644548Y-113443947D01*
X181835754Y-113310063D01*
X182000807Y-113145010D01*
X182134691Y-112953804D01*
X182233339Y-112742254D01*
X182293752Y-112516788D01*
X182311406Y-112315000D01*
X200441416Y-112315000D01*
X200461718Y-112560017D01*
X200461719Y-112560023D01*
X200522071Y-112798340D01*
X200522072Y-112798342D01*
X200620829Y-113023488D01*
X200648419Y-113065717D01*
X200755297Y-113229306D01*
X200814669Y-113293802D01*
X200921809Y-113410187D01*
X201115821Y-113561192D01*
X201115822Y-113561193D01*
X201332043Y-113678206D01*
X201332045Y-113678207D01*
X201420639Y-113708621D01*
X201564574Y-113758034D01*
X201807074Y-113798500D01*
X201807078Y-113798500D01*
X202052922Y-113798500D01*
X202052926Y-113798500D01*
X202295426Y-113758034D01*
X202527957Y-113678206D01*
X202744178Y-113561193D01*
X202938191Y-113410187D01*
X203104702Y-113229307D01*
X203239171Y-113023488D01*
X203337928Y-112798342D01*
X203367351Y-112682152D01*
X203398280Y-112560023D01*
X203398281Y-112560017D01*
X203398281Y-112560016D01*
X203398282Y-112560013D01*
X203418584Y-112315000D01*
X203398282Y-112069987D01*
X203398281Y-112069982D01*
X203398280Y-112069976D01*
X203337928Y-111831659D01*
X203335558Y-111826255D01*
X203239171Y-111606512D01*
X203104702Y-111400693D01*
X202958810Y-111242211D01*
X202938193Y-111219815D01*
X202938192Y-111219814D01*
X202938191Y-111219813D01*
X202744178Y-111068807D01*
X202744177Y-111068806D01*
X202527956Y-110951793D01*
X202527954Y-110951792D01*
X202295430Y-110871967D01*
X202295423Y-110871965D01*
X202191638Y-110854647D01*
X202052926Y-110831500D01*
X201807074Y-110831500D01*
X201685716Y-110851751D01*
X201564576Y-110871965D01*
X201564569Y-110871967D01*
X201332045Y-110951792D01*
X201332043Y-110951793D01*
X201115822Y-111068806D01*
X201115821Y-111068807D01*
X200921806Y-111219815D01*
X200755297Y-111400693D01*
X200620829Y-111606512D01*
X200522071Y-111831659D01*
X200461719Y-112069976D01*
X200461718Y-112069982D01*
X200441416Y-112315000D01*
X182311406Y-112315000D01*
X182314096Y-112284256D01*
X182293752Y-112051724D01*
X182233339Y-111826258D01*
X182134691Y-111614708D01*
X182000807Y-111423502D01*
X181835754Y-111258449D01*
X181835752Y-111258447D01*
X181835748Y-111258444D01*
X181812888Y-111242438D01*
X181768558Y-111186981D01*
X181761248Y-111116362D01*
X181793279Y-111053001D01*
X181812888Y-111036010D01*
X181835748Y-111020003D01*
X181835754Y-111019999D01*
X182000807Y-110854946D01*
X182134691Y-110663740D01*
X182215708Y-110490000D01*
X182856502Y-110490000D01*
X182876457Y-110718087D01*
X182906846Y-110831500D01*
X182935715Y-110939240D01*
X182935717Y-110939246D01*
X183032477Y-111146749D01*
X183083638Y-111219815D01*
X183163802Y-111334300D01*
X183325700Y-111496198D01*
X183513251Y-111627523D01*
X183720757Y-111724284D01*
X183941913Y-111783543D01*
X184170000Y-111803498D01*
X184398087Y-111783543D01*
X184619243Y-111724284D01*
X184826749Y-111627523D01*
X185014300Y-111496198D01*
X185176198Y-111334300D01*
X185307523Y-111146749D01*
X185307523Y-111146748D01*
X185307525Y-111146746D01*
X185310274Y-111141985D01*
X185312245Y-111143122D01*
X185352713Y-111097154D01*
X185420989Y-111077687D01*
X185488951Y-111098223D01*
X185527822Y-111143083D01*
X185529726Y-111141985D01*
X185532474Y-111146746D01*
X185638734Y-111298500D01*
X185663802Y-111334300D01*
X185825700Y-111496198D01*
X186013251Y-111627523D01*
X186220757Y-111724284D01*
X186441913Y-111783543D01*
X186670000Y-111803498D01*
X186898087Y-111783543D01*
X187119243Y-111724284D01*
X187326749Y-111627523D01*
X187514300Y-111496198D01*
X187676198Y-111334300D01*
X187807523Y-111146749D01*
X187904284Y-110939243D01*
X187963543Y-110718087D01*
X187983498Y-110490000D01*
X187963543Y-110261913D01*
X187904284Y-110040757D01*
X187807523Y-109833251D01*
X187794743Y-109815000D01*
X197941416Y-109815000D01*
X197961718Y-110060017D01*
X197961719Y-110060023D01*
X198022071Y-110298340D01*
X198022072Y-110298342D01*
X198120829Y-110523488D01*
X198208681Y-110657956D01*
X198255297Y-110729306D01*
X198370952Y-110854942D01*
X198421809Y-110910187D01*
X198583467Y-111036010D01*
X198615821Y-111061192D01*
X198615822Y-111061193D01*
X198832043Y-111178206D01*
X198832045Y-111178207D01*
X198953240Y-111219813D01*
X199064574Y-111258034D01*
X199307074Y-111298500D01*
X199307078Y-111298500D01*
X199552922Y-111298500D01*
X199552926Y-111298500D01*
X199795426Y-111258034D01*
X200027957Y-111178206D01*
X200244178Y-111061193D01*
X200438191Y-110910187D01*
X200604702Y-110729307D01*
X200739171Y-110523488D01*
X200837928Y-110298342D01*
X200867351Y-110182152D01*
X200898280Y-110060023D01*
X200898281Y-110060017D01*
X200898281Y-110060016D01*
X200898282Y-110060013D01*
X200918584Y-109815000D01*
X200898282Y-109569987D01*
X200898281Y-109569982D01*
X200898280Y-109569976D01*
X200837928Y-109331659D01*
X200837928Y-109331658D01*
X200739171Y-109106512D01*
X200604702Y-108900693D01*
X200557263Y-108849160D01*
X200438193Y-108719815D01*
X200438192Y-108719814D01*
X200438191Y-108719813D01*
X200244178Y-108568807D01*
X200244177Y-108568806D01*
X200027956Y-108451793D01*
X200027954Y-108451792D01*
X199795430Y-108371967D01*
X199795423Y-108371965D01*
X199691638Y-108354647D01*
X199552926Y-108331500D01*
X199307074Y-108331500D01*
X199185716Y-108351751D01*
X199064576Y-108371965D01*
X199064569Y-108371967D01*
X198832045Y-108451792D01*
X198832043Y-108451793D01*
X198615822Y-108568806D01*
X198615821Y-108568807D01*
X198421806Y-108719815D01*
X198255297Y-108900693D01*
X198120829Y-109106512D01*
X198022071Y-109331659D01*
X197961719Y-109569976D01*
X197961718Y-109569982D01*
X197941416Y-109815000D01*
X187794743Y-109815000D01*
X187676198Y-109645700D01*
X187514300Y-109483802D01*
X187326749Y-109352477D01*
X187119246Y-109255717D01*
X187119240Y-109255715D01*
X187025771Y-109230670D01*
X186898087Y-109196457D01*
X186670000Y-109176502D01*
X186441913Y-109196457D01*
X186220759Y-109255715D01*
X186220753Y-109255717D01*
X186013250Y-109352477D01*
X185825703Y-109483799D01*
X185825697Y-109483804D01*
X185663804Y-109645697D01*
X185663799Y-109645703D01*
X185532474Y-109833253D01*
X185529726Y-109838015D01*
X185527761Y-109836880D01*
X185487255Y-109882865D01*
X185418974Y-109902312D01*
X185351018Y-109881756D01*
X185312168Y-109836921D01*
X185310274Y-109838015D01*
X185307525Y-109833253D01*
X185176200Y-109645703D01*
X185176195Y-109645697D01*
X185014302Y-109483804D01*
X185014296Y-109483799D01*
X184826749Y-109352477D01*
X184619246Y-109255717D01*
X184619240Y-109255715D01*
X184525771Y-109230670D01*
X184398087Y-109196457D01*
X184170000Y-109176502D01*
X183941913Y-109196457D01*
X183720759Y-109255715D01*
X183720753Y-109255717D01*
X183513250Y-109352477D01*
X183325703Y-109483799D01*
X183325697Y-109483804D01*
X183163804Y-109645697D01*
X183163799Y-109645703D01*
X183032477Y-109833250D01*
X182935717Y-110040753D01*
X182935715Y-110040759D01*
X182920000Y-110099409D01*
X182876457Y-110261913D01*
X182856502Y-110490000D01*
X182215708Y-110490000D01*
X182233339Y-110452190D01*
X182293752Y-110226724D01*
X182314096Y-109994192D01*
X182293752Y-109761660D01*
X182233339Y-109536194D01*
X182134691Y-109324644D01*
X182077200Y-109242538D01*
X182000813Y-109133446D01*
X182000809Y-109133441D01*
X182000807Y-109133438D01*
X181835754Y-108968385D01*
X181835752Y-108968383D01*
X181835748Y-108968380D01*
X181812888Y-108952374D01*
X181768558Y-108896917D01*
X181761248Y-108826298D01*
X181793279Y-108762937D01*
X181812888Y-108745946D01*
X181835748Y-108729939D01*
X181835754Y-108729935D01*
X182000807Y-108564882D01*
X182134691Y-108373676D01*
X182233339Y-108162126D01*
X182293752Y-107936660D01*
X182314096Y-107704128D01*
X182293752Y-107471596D01*
X182251793Y-107315000D01*
X182836502Y-107315000D01*
X182856457Y-107543087D01*
X182860995Y-107560023D01*
X182915715Y-107764240D01*
X182915717Y-107764246D01*
X183012477Y-107971749D01*
X183143795Y-108159291D01*
X183143802Y-108159300D01*
X183305700Y-108321198D01*
X183493251Y-108452523D01*
X183700757Y-108549284D01*
X183921913Y-108608543D01*
X184150000Y-108628498D01*
X184378087Y-108608543D01*
X184599243Y-108549284D01*
X184806749Y-108452523D01*
X184994300Y-108321198D01*
X185156198Y-108159300D01*
X185287523Y-107971749D01*
X185384284Y-107764243D01*
X185443543Y-107543087D01*
X185463498Y-107315000D01*
X192996502Y-107315000D01*
X193016457Y-107543087D01*
X193020995Y-107560023D01*
X193075715Y-107764240D01*
X193075717Y-107764246D01*
X193172477Y-107971749D01*
X193303795Y-108159291D01*
X193303802Y-108159300D01*
X193465700Y-108321198D01*
X193653251Y-108452523D01*
X193860757Y-108549284D01*
X194081913Y-108608543D01*
X194310000Y-108628498D01*
X194538087Y-108608543D01*
X194759243Y-108549284D01*
X194966749Y-108452523D01*
X195154300Y-108321198D01*
X195316198Y-108159300D01*
X195412862Y-108021250D01*
X195468319Y-107976921D01*
X195538938Y-107969612D01*
X195602299Y-108001642D01*
X195621558Y-108024604D01*
X195755298Y-108229307D01*
X195839891Y-108321200D01*
X195888081Y-108373549D01*
X195921809Y-108410187D01*
X196115821Y-108561192D01*
X196115822Y-108561193D01*
X196332043Y-108678206D01*
X196332045Y-108678207D01*
X196453240Y-108719813D01*
X196564574Y-108758034D01*
X196807074Y-108798500D01*
X196807078Y-108798500D01*
X197052922Y-108798500D01*
X197052926Y-108798500D01*
X197295426Y-108758034D01*
X197527957Y-108678206D01*
X197744178Y-108561193D01*
X197938191Y-108410187D01*
X198104702Y-108229307D01*
X198239171Y-108023488D01*
X198337928Y-107798342D01*
X198367351Y-107682152D01*
X198398280Y-107560023D01*
X198398281Y-107560017D01*
X198398281Y-107560016D01*
X198398282Y-107560013D01*
X198418584Y-107315000D01*
X198398282Y-107069987D01*
X198398281Y-107069982D01*
X198398280Y-107069976D01*
X198340865Y-106843255D01*
X198337928Y-106831658D01*
X198239171Y-106606512D01*
X198104702Y-106400693D01*
X198086298Y-106380701D01*
X197938193Y-106219815D01*
X197938192Y-106219814D01*
X197938191Y-106219813D01*
X197744178Y-106068807D01*
X197744177Y-106068806D01*
X197527956Y-105951793D01*
X197527954Y-105951792D01*
X197295430Y-105871967D01*
X197295423Y-105871965D01*
X197191638Y-105854647D01*
X197052926Y-105831500D01*
X196807074Y-105831500D01*
X196685716Y-105851751D01*
X196564576Y-105871965D01*
X196564569Y-105871967D01*
X196332045Y-105951792D01*
X196332043Y-105951793D01*
X196115822Y-106068806D01*
X196115821Y-106068807D01*
X195921806Y-106219815D01*
X195755297Y-106400694D01*
X195621558Y-106605395D01*
X195567554Y-106651483D01*
X195497206Y-106661058D01*
X195432849Y-106631080D01*
X195412862Y-106608750D01*
X195344587Y-106511243D01*
X195316198Y-106470700D01*
X195154300Y-106308802D01*
X195139587Y-106298500D01*
X194966749Y-106177477D01*
X194759246Y-106080717D01*
X194759240Y-106080715D01*
X194665771Y-106055670D01*
X194538087Y-106021457D01*
X194310000Y-106001502D01*
X194081913Y-106021457D01*
X193860759Y-106080715D01*
X193860753Y-106080717D01*
X193653250Y-106177477D01*
X193465703Y-106308799D01*
X193465697Y-106308804D01*
X193303804Y-106470697D01*
X193303799Y-106470703D01*
X193172477Y-106658250D01*
X193075717Y-106865753D01*
X193075716Y-106865757D01*
X193016457Y-107086913D01*
X192996502Y-107315000D01*
X185463498Y-107315000D01*
X185443543Y-107086913D01*
X185384284Y-106865757D01*
X185287523Y-106658251D01*
X185156198Y-106470700D01*
X184994300Y-106308802D01*
X184979587Y-106298500D01*
X184806749Y-106177477D01*
X184599246Y-106080717D01*
X184599240Y-106080715D01*
X184505771Y-106055670D01*
X184378087Y-106021457D01*
X184150000Y-106001502D01*
X183921913Y-106021457D01*
X183700759Y-106080715D01*
X183700753Y-106080717D01*
X183493250Y-106177477D01*
X183305703Y-106308799D01*
X183305697Y-106308804D01*
X183143804Y-106470697D01*
X183143799Y-106470703D01*
X183012477Y-106658250D01*
X182915717Y-106865753D01*
X182915716Y-106865757D01*
X182856457Y-107086913D01*
X182836502Y-107315000D01*
X182251793Y-107315000D01*
X182233339Y-107246130D01*
X182134691Y-107034580D01*
X182006815Y-106851954D01*
X182000813Y-106843382D01*
X182000810Y-106843378D01*
X182000807Y-106843374D01*
X181835754Y-106678321D01*
X181835752Y-106678319D01*
X181835748Y-106678316D01*
X181812888Y-106662310D01*
X181768558Y-106606853D01*
X181761248Y-106536234D01*
X181793279Y-106472873D01*
X181812888Y-106455882D01*
X181835748Y-106439875D01*
X181835754Y-106439871D01*
X182000807Y-106274818D01*
X182134691Y-106083612D01*
X182233339Y-105872062D01*
X182293752Y-105646596D01*
X182314096Y-105414064D01*
X182293752Y-105181532D01*
X182233339Y-104956066D01*
X182134691Y-104744516D01*
X182063274Y-104642522D01*
X182000813Y-104553318D01*
X182000810Y-104553314D01*
X182000807Y-104553310D01*
X181835754Y-104388257D01*
X181835750Y-104388254D01*
X181835745Y-104388250D01*
X181644548Y-104254373D01*
X181644546Y-104254372D01*
X181433000Y-104155726D01*
X181432995Y-104155724D01*
X181207535Y-104095312D01*
X180975000Y-104074968D01*
X180742464Y-104095312D01*
X180517004Y-104155724D01*
X180516999Y-104155726D01*
X180305453Y-104254372D01*
X180305451Y-104254373D01*
X180114254Y-104388250D01*
X180114243Y-104388259D01*
X179949195Y-104553307D01*
X179949186Y-104553318D01*
X179815309Y-104744515D01*
X179815308Y-104744517D01*
X179716662Y-104956063D01*
X179716660Y-104956068D01*
X179656248Y-105181528D01*
X179635904Y-105414064D01*
X179649575Y-105570322D01*
X179635586Y-105639926D01*
X179586186Y-105690919D01*
X179517060Y-105707109D01*
X179450155Y-105683356D01*
X179434959Y-105670398D01*
X179295756Y-105531195D01*
X179295745Y-105531186D01*
X179104548Y-105397309D01*
X179104546Y-105397308D01*
X178893000Y-105298662D01*
X178892995Y-105298660D01*
X178667535Y-105238248D01*
X178435000Y-105217904D01*
X178202464Y-105238248D01*
X177977004Y-105298660D01*
X177976999Y-105298662D01*
X177765453Y-105397308D01*
X177765451Y-105397309D01*
X177574254Y-105531186D01*
X177574249Y-105531190D01*
X177435034Y-105670405D01*
X177372722Y-105704430D01*
X177301906Y-105699365D01*
X177245071Y-105656818D01*
X177220260Y-105590297D01*
X177220419Y-105570327D01*
X177234096Y-105414000D01*
X177213752Y-105181468D01*
X177153339Y-104956002D01*
X177054691Y-104744452D01*
X176997200Y-104662346D01*
X176920813Y-104553254D01*
X176920810Y-104553250D01*
X176920807Y-104553246D01*
X176755754Y-104388193D01*
X176732931Y-104372212D01*
X176688604Y-104316757D01*
X176681295Y-104246137D01*
X176713325Y-104182777D01*
X176732930Y-104165787D01*
X176755754Y-104149807D01*
X176920807Y-103984754D01*
X177054691Y-103793548D01*
X177153339Y-103581998D01*
X177173970Y-103505000D01*
X182836502Y-103505000D01*
X182856457Y-103733087D01*
X182890670Y-103860771D01*
X182915715Y-103954240D01*
X182915717Y-103954246D01*
X183012477Y-104161749D01*
X183131449Y-104331659D01*
X183143802Y-104349300D01*
X183305700Y-104511198D01*
X183493251Y-104642523D01*
X183700757Y-104739284D01*
X183921913Y-104798543D01*
X184150000Y-104818498D01*
X184378087Y-104798543D01*
X184599243Y-104739284D01*
X184806749Y-104642523D01*
X184994300Y-104511198D01*
X185156198Y-104349300D01*
X185287523Y-104161749D01*
X185287523Y-104161748D01*
X185287525Y-104161746D01*
X185290274Y-104156985D01*
X185292245Y-104158122D01*
X185332713Y-104112154D01*
X185400989Y-104092687D01*
X185468951Y-104113223D01*
X185507822Y-104158083D01*
X185509726Y-104156985D01*
X185512474Y-104161746D01*
X185643799Y-104349296D01*
X185643802Y-104349300D01*
X185805700Y-104511198D01*
X185993251Y-104642523D01*
X186200757Y-104739284D01*
X186421913Y-104798543D01*
X186650000Y-104818498D01*
X186689982Y-104815000D01*
X197941416Y-104815000D01*
X197961718Y-105060017D01*
X197961719Y-105060023D01*
X198022071Y-105298340D01*
X198022072Y-105298342D01*
X198120829Y-105523488D01*
X198151431Y-105570327D01*
X198255297Y-105729306D01*
X198386712Y-105872062D01*
X198421809Y-105910187D01*
X198539131Y-106001502D01*
X198615821Y-106061192D01*
X198615822Y-106061193D01*
X198832043Y-106178206D01*
X198832045Y-106178207D01*
X198953240Y-106219813D01*
X199064574Y-106258034D01*
X199307074Y-106298500D01*
X199307078Y-106298500D01*
X199552922Y-106298500D01*
X199552926Y-106298500D01*
X199795426Y-106258034D01*
X200027957Y-106178206D01*
X200244178Y-106061193D01*
X200438191Y-105910187D01*
X200604702Y-105729307D01*
X200739171Y-105523488D01*
X200837928Y-105298342D01*
X200867526Y-105181464D01*
X200898280Y-105060023D01*
X200898281Y-105060017D01*
X200898281Y-105060016D01*
X200898282Y-105060013D01*
X200918584Y-104815000D01*
X200898282Y-104569987D01*
X200898281Y-104569982D01*
X200898280Y-104569976D01*
X200842396Y-104349302D01*
X200837928Y-104331658D01*
X200739171Y-104106512D01*
X200604702Y-103900693D01*
X200438191Y-103719813D01*
X200244178Y-103568807D01*
X200244177Y-103568806D01*
X200027956Y-103451793D01*
X200027954Y-103451792D01*
X199795430Y-103371967D01*
X199795423Y-103371965D01*
X199691638Y-103354647D01*
X199552926Y-103331500D01*
X199307074Y-103331500D01*
X199185716Y-103351751D01*
X199064576Y-103371965D01*
X199064569Y-103371967D01*
X198832045Y-103451792D01*
X198832043Y-103451793D01*
X198615822Y-103568806D01*
X198615821Y-103568807D01*
X198421806Y-103719815D01*
X198255297Y-103900693D01*
X198120829Y-104106512D01*
X198022071Y-104331659D01*
X197961719Y-104569976D01*
X197961718Y-104569982D01*
X197941416Y-104815000D01*
X186689982Y-104815000D01*
X186878087Y-104798543D01*
X187099243Y-104739284D01*
X187306749Y-104642523D01*
X187494300Y-104511198D01*
X187656198Y-104349300D01*
X187787523Y-104161749D01*
X187884284Y-103954243D01*
X187943543Y-103733087D01*
X187963498Y-103505000D01*
X187943543Y-103276913D01*
X187884284Y-103055757D01*
X187787523Y-102848251D01*
X187656198Y-102660700D01*
X187494300Y-102498802D01*
X187430960Y-102454451D01*
X187306749Y-102367477D01*
X187194211Y-102315000D01*
X200441416Y-102315000D01*
X200461718Y-102560017D01*
X200461719Y-102560023D01*
X200522071Y-102798340D01*
X200522072Y-102798342D01*
X200620829Y-103023488D01*
X200755298Y-103229307D01*
X200921809Y-103410187D01*
X201115821Y-103561192D01*
X201115822Y-103561193D01*
X201332043Y-103678206D01*
X201332045Y-103678207D01*
X201453240Y-103719813D01*
X201564574Y-103758034D01*
X201807074Y-103798500D01*
X201807078Y-103798500D01*
X202052922Y-103798500D01*
X202052926Y-103798500D01*
X202295426Y-103758034D01*
X202527957Y-103678206D01*
X202744178Y-103561193D01*
X202938191Y-103410187D01*
X203104702Y-103229307D01*
X203239171Y-103023488D01*
X203337928Y-102798342D01*
X203371442Y-102665999D01*
X203398280Y-102560023D01*
X203398281Y-102560017D01*
X203398281Y-102560016D01*
X203398282Y-102560013D01*
X203418584Y-102315000D01*
X203398282Y-102069987D01*
X203398281Y-102069982D01*
X203398280Y-102069976D01*
X203346539Y-101865661D01*
X203337928Y-101831658D01*
X203239171Y-101606512D01*
X203104702Y-101400693D01*
X203045332Y-101336200D01*
X202938193Y-101219815D01*
X202938192Y-101219814D01*
X202938191Y-101219813D01*
X202744178Y-101068807D01*
X202744177Y-101068806D01*
X202527956Y-100951793D01*
X202527954Y-100951792D01*
X202295430Y-100871967D01*
X202295423Y-100871965D01*
X202191638Y-100854647D01*
X202052926Y-100831500D01*
X201807074Y-100831500D01*
X201685716Y-100851751D01*
X201564576Y-100871965D01*
X201564569Y-100871967D01*
X201332045Y-100951792D01*
X201332043Y-100951793D01*
X201115822Y-101068806D01*
X201115821Y-101068807D01*
X200921806Y-101219815D01*
X200755297Y-101400693D01*
X200620829Y-101606512D01*
X200522071Y-101831659D01*
X200461719Y-102069976D01*
X200461718Y-102069982D01*
X200441416Y-102315000D01*
X187194211Y-102315000D01*
X187099246Y-102270717D01*
X187099240Y-102270715D01*
X187005771Y-102245670D01*
X186878087Y-102211457D01*
X186650000Y-102191502D01*
X186421913Y-102211457D01*
X186200759Y-102270715D01*
X186200753Y-102270717D01*
X185993250Y-102367477D01*
X185805703Y-102498799D01*
X185805697Y-102498804D01*
X185643804Y-102660697D01*
X185643799Y-102660703D01*
X185512474Y-102848253D01*
X185509726Y-102853015D01*
X185507761Y-102851880D01*
X185467255Y-102897865D01*
X185398974Y-102917312D01*
X185331018Y-102896756D01*
X185292168Y-102851921D01*
X185290274Y-102853015D01*
X185287525Y-102848253D01*
X185159912Y-102666004D01*
X185156198Y-102660700D01*
X184994300Y-102498802D01*
X184930960Y-102454451D01*
X184806749Y-102367477D01*
X184599246Y-102270717D01*
X184599240Y-102270715D01*
X184505771Y-102245670D01*
X184378087Y-102211457D01*
X184150000Y-102191502D01*
X183921913Y-102211457D01*
X183700759Y-102270715D01*
X183700753Y-102270717D01*
X183493250Y-102367477D01*
X183305703Y-102498799D01*
X183305697Y-102498804D01*
X183143804Y-102660697D01*
X183143799Y-102660703D01*
X183012477Y-102848250D01*
X182915717Y-103055753D01*
X182915716Y-103055757D01*
X182856457Y-103276913D01*
X182836502Y-103505000D01*
X177173970Y-103505000D01*
X177213752Y-103356532D01*
X177234096Y-103124000D01*
X177213752Y-102891468D01*
X177153339Y-102666002D01*
X177054691Y-102454452D01*
X176957046Y-102315000D01*
X176920813Y-102263254D01*
X176920810Y-102263250D01*
X176920807Y-102263246D01*
X176755754Y-102098193D01*
X176755750Y-102098190D01*
X176755745Y-102098186D01*
X176564548Y-101964309D01*
X176564546Y-101964308D01*
X176353000Y-101865662D01*
X176352995Y-101865660D01*
X176127535Y-101805248D01*
X175895000Y-101784904D01*
X175662464Y-101805248D01*
X175437004Y-101865660D01*
X175436999Y-101865662D01*
X175225453Y-101964308D01*
X175225451Y-101964309D01*
X175034254Y-102098186D01*
X175034243Y-102098195D01*
X174869195Y-102263243D01*
X174869186Y-102263254D01*
X174735309Y-102454451D01*
X174735308Y-102454453D01*
X174636662Y-102665999D01*
X174636660Y-102666004D01*
X174576248Y-102891464D01*
X174555904Y-103124000D01*
X174065500Y-103124000D01*
X174065500Y-100330000D01*
X182836502Y-100330000D01*
X182856457Y-100558086D01*
X182915715Y-100779240D01*
X182915717Y-100779246D01*
X183012477Y-100986749D01*
X183133250Y-101159231D01*
X183143802Y-101174300D01*
X183305700Y-101336198D01*
X183493251Y-101467523D01*
X183700757Y-101564284D01*
X183921913Y-101623543D01*
X184150000Y-101643498D01*
X184378087Y-101623543D01*
X184599243Y-101564284D01*
X184806749Y-101467523D01*
X184994300Y-101336198D01*
X185156198Y-101174300D01*
X185287523Y-100986749D01*
X185384284Y-100779243D01*
X185443543Y-100558087D01*
X185463498Y-100330000D01*
X192996502Y-100330000D01*
X193016457Y-100558086D01*
X193075715Y-100779240D01*
X193075717Y-100779246D01*
X193172477Y-100986749D01*
X193293250Y-101159231D01*
X193303802Y-101174300D01*
X193465700Y-101336198D01*
X193653251Y-101467523D01*
X193860757Y-101564284D01*
X194081913Y-101623543D01*
X194310000Y-101643498D01*
X194538087Y-101623543D01*
X194759243Y-101564284D01*
X194966749Y-101467523D01*
X195154300Y-101336198D01*
X195316198Y-101174300D01*
X195447523Y-100986749D01*
X195544284Y-100779243D01*
X195603543Y-100558087D01*
X195623498Y-100330000D01*
X195603543Y-100101913D01*
X195544284Y-99880757D01*
X195513621Y-99815000D01*
X197941416Y-99815000D01*
X197961718Y-100060017D01*
X197961719Y-100060023D01*
X198022071Y-100298340D01*
X198022072Y-100298342D01*
X198120829Y-100523488D01*
X198255298Y-100729307D01*
X198421809Y-100910187D01*
X198608609Y-101055579D01*
X198615821Y-101061192D01*
X198615822Y-101061193D01*
X198832043Y-101178206D01*
X198832045Y-101178207D01*
X198953240Y-101219813D01*
X199064574Y-101258034D01*
X199307074Y-101298500D01*
X199307078Y-101298500D01*
X199552922Y-101298500D01*
X199552926Y-101298500D01*
X199795426Y-101258034D01*
X200027957Y-101178206D01*
X200244178Y-101061193D01*
X200438191Y-100910187D01*
X200604702Y-100729307D01*
X200739171Y-100523488D01*
X200837928Y-100298342D01*
X200874314Y-100154660D01*
X200898280Y-100060023D01*
X200898281Y-100060017D01*
X200898281Y-100060016D01*
X200898282Y-100060013D01*
X200918584Y-99815000D01*
X200909125Y-99700843D01*
X205479500Y-99700843D01*
X205479500Y-99929157D01*
X205515216Y-100154660D01*
X205585769Y-100371799D01*
X205689421Y-100575228D01*
X205689423Y-100575231D01*
X205823622Y-100759939D01*
X205985060Y-100921377D01*
X206026924Y-100951793D01*
X206169772Y-101055579D01*
X206373201Y-101159231D01*
X206590340Y-101229784D01*
X206815843Y-101265500D01*
X206815846Y-101265500D01*
X207044154Y-101265500D01*
X207044157Y-101265500D01*
X207269660Y-101229784D01*
X207486799Y-101159231D01*
X207690228Y-101055579D01*
X207874937Y-100921379D01*
X208036379Y-100759937D01*
X208170579Y-100575228D01*
X208274231Y-100371799D01*
X208344784Y-100154660D01*
X208380500Y-99929157D01*
X208380500Y-99700843D01*
X208344784Y-99475340D01*
X208274231Y-99258201D01*
X208170579Y-99054772D01*
X208036379Y-98870063D01*
X208036377Y-98870060D01*
X207874939Y-98708622D01*
X207690231Y-98574423D01*
X207690230Y-98574422D01*
X207690228Y-98574421D01*
X207486799Y-98470769D01*
X207269660Y-98400216D01*
X207044157Y-98364500D01*
X206815843Y-98364500D01*
X206590340Y-98400216D01*
X206590337Y-98400216D01*
X206590336Y-98400217D01*
X206373201Y-98470769D01*
X206373199Y-98470770D01*
X206169768Y-98574423D01*
X205985060Y-98708622D01*
X205823622Y-98870060D01*
X205689423Y-99054768D01*
X205663058Y-99106512D01*
X205585769Y-99258201D01*
X205515216Y-99475340D01*
X205479500Y-99700843D01*
X200909125Y-99700843D01*
X200898282Y-99569987D01*
X200898281Y-99569982D01*
X200898280Y-99569976D01*
X200837928Y-99331659D01*
X200837928Y-99331658D01*
X200739171Y-99106512D01*
X200604702Y-98900693D01*
X200438191Y-98719813D01*
X200244178Y-98568807D01*
X200244177Y-98568806D01*
X200027956Y-98451793D01*
X200027954Y-98451792D01*
X199795430Y-98371967D01*
X199795423Y-98371965D01*
X199691638Y-98354647D01*
X199552926Y-98331500D01*
X199307074Y-98331500D01*
X199185716Y-98351751D01*
X199064576Y-98371965D01*
X199064569Y-98371967D01*
X198832045Y-98451792D01*
X198832043Y-98451793D01*
X198615822Y-98568806D01*
X198615821Y-98568807D01*
X198421806Y-98719815D01*
X198255297Y-98900693D01*
X198120829Y-99106512D01*
X198022071Y-99331659D01*
X197961719Y-99569976D01*
X197961718Y-99569982D01*
X197941416Y-99815000D01*
X195513621Y-99815000D01*
X195447523Y-99673251D01*
X195316198Y-99485700D01*
X195154300Y-99323802D01*
X195060609Y-99258199D01*
X194966749Y-99192477D01*
X194759246Y-99095717D01*
X194759240Y-99095715D01*
X194606424Y-99054768D01*
X194538087Y-99036457D01*
X194310000Y-99016502D01*
X194081913Y-99036457D01*
X193860759Y-99095715D01*
X193860753Y-99095717D01*
X193653250Y-99192477D01*
X193465703Y-99323799D01*
X193465697Y-99323804D01*
X193303804Y-99485697D01*
X193303799Y-99485703D01*
X193172477Y-99673250D01*
X193075717Y-99880753D01*
X193075715Y-99880759D01*
X193016457Y-100101913D01*
X192996502Y-100330000D01*
X185463498Y-100330000D01*
X185443543Y-100101913D01*
X185384284Y-99880757D01*
X185287523Y-99673251D01*
X185156198Y-99485700D01*
X184994300Y-99323802D01*
X184900609Y-99258199D01*
X184806749Y-99192477D01*
X184599246Y-99095717D01*
X184599240Y-99095715D01*
X184446424Y-99054768D01*
X184378087Y-99036457D01*
X184150000Y-99016502D01*
X183921913Y-99036457D01*
X183700759Y-99095715D01*
X183700753Y-99095717D01*
X183493250Y-99192477D01*
X183305703Y-99323799D01*
X183305697Y-99323804D01*
X183143804Y-99485697D01*
X183143799Y-99485703D01*
X183012477Y-99673250D01*
X182915717Y-99880753D01*
X182915715Y-99880759D01*
X182856457Y-100101913D01*
X182836502Y-100330000D01*
X174065500Y-100330000D01*
X174065500Y-91641500D01*
X174085502Y-91573379D01*
X174139158Y-91526886D01*
X174191500Y-91515500D01*
X212700469Y-91515500D01*
X212721194Y-91515500D01*
X212728801Y-91515730D01*
G37*
G04 #@! TD.AperFunction*
M02*
