G04 #@! TF.GenerationSoftware,KiCad,Pcbnew,(5.1.5-0-10_14)*
G04 #@! TF.CreationDate,2021-12-04T19:34:15-07:00*
G04 #@! TF.ProjectId,PC8801mkII VGA,50433838-3031-46d6-9b49-49205647412e,rev?*
G04 #@! TF.SameCoordinates,Original*
G04 #@! TF.FileFunction,Copper,L2,Bot*
G04 #@! TF.FilePolarity,Positive*
%FSLAX46Y46*%
G04 Gerber Fmt 4.6, Leading zero omitted, Abs format (unit mm)*
G04 Created by KiCad (PCBNEW (5.1.5-0-10_14)) date 2021-12-04 19:34:15*
%MOMM*%
%LPD*%
G04 APERTURE LIST*
%ADD10C,1.651000*%
%ADD11C,3.810000*%
%ADD12O,1.400000X1.400000*%
%ADD13C,1.400000*%
%ADD14C,1.950000*%
%ADD15C,0.800000*%
%ADD16C,0.250000*%
%ADD17C,0.254000*%
G04 APERTURE END LIST*
D10*
X177927000Y-103124000D03*
X177927000Y-105414000D03*
X177927000Y-107704001D03*
X177927000Y-109993999D03*
X177927000Y-112283999D03*
X180467000Y-104267000D03*
X180467000Y-106557000D03*
X180467000Y-108847001D03*
X180467000Y-111136999D03*
X180467000Y-113426999D03*
X183007000Y-103124000D03*
X183007000Y-105414064D03*
X183007000Y-107704128D03*
X183007000Y-109994192D03*
X183007000Y-112284256D03*
D11*
X180467000Y-95072200D03*
X180467000Y-120319800D03*
D12*
X194564000Y-103632000D03*
D13*
X186944000Y-103632000D03*
X186944000Y-112776000D03*
D12*
X194564000Y-112776000D03*
X194564000Y-108204000D03*
D13*
X186944000Y-108204000D03*
D14*
X201930000Y-107315000D03*
X199430000Y-109815000D03*
X201930000Y-102315000D03*
X199430000Y-104815000D03*
X201930000Y-112315000D03*
X211930000Y-109815000D03*
X211930000Y-104815000D03*
X199430000Y-99815000D03*
X199430000Y-114815000D03*
X196930000Y-107315000D03*
D15*
X187198000Y-110617000D03*
X187071000Y-105918000D03*
X187071000Y-101346000D03*
D16*
X177101501Y-106239499D02*
X177927000Y-105414000D01*
X176326489Y-113022640D02*
X176326489Y-107014511D01*
X200426802Y-117015020D02*
X180318868Y-117015019D01*
X203230001Y-114211821D02*
X200426802Y-117015020D01*
X201354002Y-109815000D02*
X203230001Y-111690999D01*
X176326489Y-107014511D02*
X177101501Y-106239499D01*
X180318868Y-117015019D02*
X176326489Y-113022640D01*
X203230001Y-111690999D02*
X203230001Y-114211821D01*
X199430000Y-109815000D02*
X201354002Y-109815000D01*
X176776499Y-112836240D02*
X176776499Y-108854502D01*
X180505269Y-116565010D02*
X176776499Y-112836240D01*
X200240402Y-116565010D02*
X180505269Y-116565010D01*
X201180010Y-115625402D02*
X200240402Y-116565010D01*
X201180011Y-113675601D02*
X201180010Y-115625402D01*
X177101501Y-108529500D02*
X177927000Y-107704001D01*
X176776499Y-108854502D02*
X177101501Y-108529500D01*
X199430000Y-104815000D02*
X199430000Y-107890998D01*
X198129999Y-110625589D02*
X201180011Y-113675601D01*
X198129999Y-109190999D02*
X198129999Y-110625589D01*
X199430000Y-107890998D02*
X198129999Y-109190999D01*
X181292499Y-105092499D02*
X180467000Y-104267000D01*
X181617501Y-105417501D02*
X181292499Y-105092499D01*
X181617501Y-107696500D02*
X181617501Y-105417501D01*
X180467000Y-108847001D02*
X181617501Y-107696500D01*
X185788808Y-112776000D02*
X183007000Y-109994192D01*
X186944000Y-112776000D02*
X185788808Y-112776000D01*
X183506872Y-108204000D02*
X183007000Y-107704128D01*
X187960000Y-108204000D02*
X183506872Y-108204000D01*
D17*
G36*
X179263859Y-92821281D02*
G01*
X178847844Y-93099253D01*
X178494053Y-93453044D01*
X178216081Y-93869059D01*
X178024611Y-94331309D01*
X177927000Y-94822032D01*
X177927000Y-95322368D01*
X178024611Y-95813091D01*
X178216081Y-96275341D01*
X178494053Y-96691356D01*
X178847844Y-97045147D01*
X179263859Y-97323119D01*
X179726109Y-97514589D01*
X180216832Y-97612200D01*
X180717168Y-97612200D01*
X181207891Y-97514589D01*
X181670141Y-97323119D01*
X182086156Y-97045147D01*
X182439947Y-96691356D01*
X182717919Y-96275341D01*
X182909389Y-95813091D01*
X183007000Y-95322368D01*
X183007000Y-94822032D01*
X182909389Y-94331309D01*
X182717919Y-93869059D01*
X182439947Y-93453044D01*
X182086156Y-93099253D01*
X181670141Y-92821281D01*
X181582551Y-92785000D01*
X213920001Y-92785000D01*
X213920000Y-123115000D01*
X175970000Y-123115000D01*
X175970000Y-120069632D01*
X177927000Y-120069632D01*
X177927000Y-120569968D01*
X178024611Y-121060691D01*
X178216081Y-121522941D01*
X178494053Y-121938956D01*
X178847844Y-122292747D01*
X179263859Y-122570719D01*
X179726109Y-122762189D01*
X180216832Y-122859800D01*
X180717168Y-122859800D01*
X181207891Y-122762189D01*
X181670141Y-122570719D01*
X182086156Y-122292747D01*
X182439947Y-121938956D01*
X182717919Y-121522941D01*
X182909389Y-121060691D01*
X183007000Y-120569968D01*
X183007000Y-120069632D01*
X182909389Y-119578909D01*
X182717919Y-119116659D01*
X182439947Y-118700644D01*
X182086156Y-118346853D01*
X181670141Y-118068881D01*
X181207891Y-117877411D01*
X180717168Y-117779800D01*
X180216832Y-117779800D01*
X179726109Y-117877411D01*
X179263859Y-118068881D01*
X178847844Y-118346853D01*
X178494053Y-118700644D01*
X178216081Y-119116659D01*
X178024611Y-119578909D01*
X177927000Y-120069632D01*
X175970000Y-120069632D01*
X175970000Y-113740952D01*
X179755073Y-117526026D01*
X179778867Y-117555019D01*
X179807860Y-117578813D01*
X179807865Y-117578818D01*
X179894592Y-117649993D01*
X180026621Y-117720565D01*
X180169882Y-117764022D01*
X180318868Y-117778696D01*
X180356211Y-117775018D01*
X200389480Y-117775020D01*
X200426802Y-117778696D01*
X200464124Y-117775020D01*
X200464134Y-117775020D01*
X200575787Y-117764023D01*
X200719048Y-117720566D01*
X200719052Y-117720564D01*
X200851078Y-117649994D01*
X200937804Y-117578819D01*
X200937805Y-117578818D01*
X200966802Y-117555021D01*
X200990600Y-117526023D01*
X203741004Y-114775620D01*
X203770002Y-114751822D01*
X203825268Y-114684480D01*
X203864975Y-114636098D01*
X203865953Y-114634268D01*
X205095000Y-114634268D01*
X205095000Y-114995732D01*
X205165518Y-115350250D01*
X205303844Y-115684199D01*
X205504662Y-115984744D01*
X205760256Y-116240338D01*
X206060801Y-116441156D01*
X206394750Y-116579482D01*
X206749268Y-116650000D01*
X207110732Y-116650000D01*
X207465250Y-116579482D01*
X207799199Y-116441156D01*
X208099744Y-116240338D01*
X208355338Y-115984744D01*
X208556156Y-115684199D01*
X208694482Y-115350250D01*
X208765000Y-114995732D01*
X208765000Y-114634268D01*
X208694482Y-114279750D01*
X208556156Y-113945801D01*
X208355338Y-113645256D01*
X208099744Y-113389662D01*
X207799199Y-113188844D01*
X207465250Y-113050518D01*
X207110732Y-112980000D01*
X206749268Y-112980000D01*
X206394750Y-113050518D01*
X206060801Y-113188844D01*
X205760256Y-113389662D01*
X205504662Y-113645256D01*
X205303844Y-113945801D01*
X205165518Y-114279750D01*
X205095000Y-114634268D01*
X203865953Y-114634268D01*
X203935547Y-114504068D01*
X203979004Y-114360807D01*
X203990001Y-114249154D01*
X203990001Y-114249145D01*
X203993677Y-114211822D01*
X203990001Y-114174499D01*
X203990001Y-111728321D01*
X203993677Y-111690998D01*
X203990001Y-111653675D01*
X203990001Y-111653666D01*
X203979004Y-111542013D01*
X203935547Y-111398752D01*
X203864975Y-111266723D01*
X203770002Y-111150998D01*
X203741005Y-111127201D01*
X202270233Y-109656429D01*
X210320000Y-109656429D01*
X210320000Y-109973571D01*
X210381871Y-110284620D01*
X210503237Y-110577621D01*
X210679431Y-110841315D01*
X210903685Y-111065569D01*
X211167379Y-111241763D01*
X211460380Y-111363129D01*
X211771429Y-111425000D01*
X212088571Y-111425000D01*
X212399620Y-111363129D01*
X212692621Y-111241763D01*
X212956315Y-111065569D01*
X213180569Y-110841315D01*
X213356763Y-110577621D01*
X213478129Y-110284620D01*
X213540000Y-109973571D01*
X213540000Y-109656429D01*
X213478129Y-109345380D01*
X213356763Y-109052379D01*
X213180569Y-108788685D01*
X212956315Y-108564431D01*
X212692621Y-108388237D01*
X212399620Y-108266871D01*
X212088571Y-108205000D01*
X211771429Y-108205000D01*
X211460380Y-108266871D01*
X211167379Y-108388237D01*
X210903685Y-108564431D01*
X210679431Y-108788685D01*
X210503237Y-109052379D01*
X210381871Y-109345380D01*
X210320000Y-109656429D01*
X202270233Y-109656429D01*
X201917806Y-109304003D01*
X201894003Y-109274999D01*
X201778278Y-109180026D01*
X201646249Y-109109454D01*
X201502988Y-109065997D01*
X201391335Y-109055000D01*
X201391324Y-109055000D01*
X201354002Y-109051324D01*
X201316680Y-109055000D01*
X200857849Y-109055000D01*
X200856763Y-109052379D01*
X200680569Y-108788685D01*
X200456315Y-108564431D01*
X200258992Y-108432584D01*
X200992021Y-108432584D01*
X201084766Y-108694429D01*
X201370120Y-108832820D01*
X201676990Y-108912883D01*
X201993584Y-108931540D01*
X202307733Y-108888074D01*
X202607367Y-108784156D01*
X202775234Y-108694429D01*
X202867979Y-108432584D01*
X201930000Y-107494605D01*
X200992021Y-108432584D01*
X200258992Y-108432584D01*
X200192621Y-108388237D01*
X200052670Y-108330267D01*
X200064974Y-108315275D01*
X200135546Y-108183245D01*
X200151693Y-108130013D01*
X200179003Y-108039984D01*
X200190000Y-107928331D01*
X200190000Y-107928322D01*
X200193676Y-107890999D01*
X200190000Y-107853676D01*
X200190000Y-107378584D01*
X200313460Y-107378584D01*
X200356926Y-107692733D01*
X200460844Y-107992367D01*
X200550571Y-108160234D01*
X200812416Y-108252979D01*
X201750395Y-107315000D01*
X202109605Y-107315000D01*
X203047584Y-108252979D01*
X203309429Y-108160234D01*
X203447820Y-107874880D01*
X203527883Y-107568010D01*
X203546540Y-107251416D01*
X203503074Y-106937267D01*
X203399156Y-106637633D01*
X203309429Y-106469766D01*
X203047584Y-106377021D01*
X202109605Y-107315000D01*
X201750395Y-107315000D01*
X200812416Y-106377021D01*
X200550571Y-106469766D01*
X200412180Y-106755120D01*
X200332117Y-107061990D01*
X200313460Y-107378584D01*
X200190000Y-107378584D01*
X200190000Y-106242849D01*
X200192621Y-106241763D01*
X200258991Y-106197416D01*
X200992021Y-106197416D01*
X201930000Y-107135395D01*
X202867979Y-106197416D01*
X202775234Y-105935571D01*
X202489880Y-105797180D01*
X202183010Y-105717117D01*
X201866416Y-105698460D01*
X201552267Y-105741926D01*
X201252633Y-105845844D01*
X201084766Y-105935571D01*
X200992021Y-106197416D01*
X200258991Y-106197416D01*
X200456315Y-106065569D01*
X200680569Y-105841315D01*
X200856763Y-105577621D01*
X200978129Y-105284620D01*
X201040000Y-104973571D01*
X201040000Y-104656429D01*
X210320000Y-104656429D01*
X210320000Y-104973571D01*
X210381871Y-105284620D01*
X210503237Y-105577621D01*
X210679431Y-105841315D01*
X210903685Y-106065569D01*
X211167379Y-106241763D01*
X211460380Y-106363129D01*
X211771429Y-106425000D01*
X212088571Y-106425000D01*
X212399620Y-106363129D01*
X212692621Y-106241763D01*
X212956315Y-106065569D01*
X213180569Y-105841315D01*
X213356763Y-105577621D01*
X213478129Y-105284620D01*
X213540000Y-104973571D01*
X213540000Y-104656429D01*
X213478129Y-104345380D01*
X213356763Y-104052379D01*
X213180569Y-103788685D01*
X212956315Y-103564431D01*
X212692621Y-103388237D01*
X212399620Y-103266871D01*
X212088571Y-103205000D01*
X211771429Y-103205000D01*
X211460380Y-103266871D01*
X211167379Y-103388237D01*
X210903685Y-103564431D01*
X210679431Y-103788685D01*
X210503237Y-104052379D01*
X210381871Y-104345380D01*
X210320000Y-104656429D01*
X201040000Y-104656429D01*
X200978129Y-104345380D01*
X200856763Y-104052379D01*
X200680569Y-103788685D01*
X200456315Y-103564431D01*
X200192621Y-103388237D01*
X199899620Y-103266871D01*
X199588571Y-103205000D01*
X199271429Y-103205000D01*
X198960380Y-103266871D01*
X198667379Y-103388237D01*
X198403685Y-103564431D01*
X198179431Y-103788685D01*
X198003237Y-104052379D01*
X197881871Y-104345380D01*
X197820000Y-104656429D01*
X197820000Y-104973571D01*
X197881871Y-105284620D01*
X198003237Y-105577621D01*
X198179431Y-105841315D01*
X198403685Y-106065569D01*
X198667379Y-106241763D01*
X198670000Y-106242849D01*
X198670001Y-107576195D01*
X198482239Y-107763957D01*
X198540000Y-107473571D01*
X198540000Y-107156429D01*
X198478129Y-106845380D01*
X198356763Y-106552379D01*
X198180569Y-106288685D01*
X197956315Y-106064431D01*
X197692621Y-105888237D01*
X197399620Y-105766871D01*
X197088571Y-105705000D01*
X196771429Y-105705000D01*
X196460380Y-105766871D01*
X196167379Y-105888237D01*
X195903685Y-106064431D01*
X195679431Y-106288685D01*
X195503237Y-106552379D01*
X195381871Y-106845380D01*
X195329284Y-107109756D01*
X195196359Y-107020939D01*
X194953405Y-106920304D01*
X194695486Y-106869000D01*
X194432514Y-106869000D01*
X194174595Y-106920304D01*
X193931641Y-107020939D01*
X193712987Y-107167038D01*
X193527038Y-107352987D01*
X193380939Y-107571641D01*
X193280304Y-107814595D01*
X193229000Y-108072514D01*
X193229000Y-108335486D01*
X193280304Y-108593405D01*
X193380939Y-108836359D01*
X193527038Y-109055013D01*
X193712987Y-109240962D01*
X193931641Y-109387061D01*
X194174595Y-109487696D01*
X194432514Y-109539000D01*
X194695486Y-109539000D01*
X194953405Y-109487696D01*
X195196359Y-109387061D01*
X195415013Y-109240962D01*
X195600962Y-109055013D01*
X195747061Y-108836359D01*
X195847696Y-108593405D01*
X195861604Y-108523488D01*
X195903685Y-108565569D01*
X196167379Y-108741763D01*
X196460380Y-108863129D01*
X196771429Y-108925000D01*
X197088571Y-108925000D01*
X197399620Y-108863129D01*
X197455971Y-108839787D01*
X197445302Y-108859747D01*
X197424453Y-108898753D01*
X197380996Y-109042014D01*
X197369999Y-109153667D01*
X197369999Y-109153677D01*
X197366323Y-109190999D01*
X197369999Y-109228322D01*
X197370000Y-110588257D01*
X197366323Y-110625589D01*
X197380997Y-110774574D01*
X197424453Y-110917835D01*
X197495025Y-111049865D01*
X197559514Y-111128444D01*
X197589999Y-111165590D01*
X197618997Y-111189388D01*
X199646039Y-113216431D01*
X199588571Y-113205000D01*
X199271429Y-113205000D01*
X198960380Y-113266871D01*
X198667379Y-113388237D01*
X198403685Y-113564431D01*
X198179431Y-113788685D01*
X198003237Y-114052379D01*
X197881871Y-114345380D01*
X197820000Y-114656429D01*
X197820000Y-114973571D01*
X197881871Y-115284620D01*
X198003237Y-115577621D01*
X198155173Y-115805010D01*
X180820071Y-115805010D01*
X179544334Y-114529273D01*
X179635697Y-114437910D01*
X179710367Y-114684480D01*
X179970228Y-114807930D01*
X180249180Y-114878312D01*
X180536502Y-114892920D01*
X180821154Y-114851193D01*
X181092196Y-114754736D01*
X181223633Y-114684480D01*
X181298304Y-114437908D01*
X180467000Y-113606604D01*
X180452858Y-113620747D01*
X180273253Y-113441142D01*
X180287395Y-113426999D01*
X179456091Y-112595695D01*
X179347576Y-112628557D01*
X179387500Y-112427846D01*
X179387500Y-112147908D01*
X179635696Y-112147908D01*
X179676304Y-112281999D01*
X179635696Y-112416090D01*
X180467000Y-113247394D01*
X181298304Y-112416090D01*
X181257696Y-112281999D01*
X181298304Y-112147908D01*
X180467000Y-111316604D01*
X179635696Y-112147908D01*
X179387500Y-112147908D01*
X179387500Y-112140152D01*
X179346729Y-111935184D01*
X179456091Y-111968303D01*
X180287395Y-111136999D01*
X179456091Y-110305695D01*
X179347576Y-110338557D01*
X179387500Y-110137846D01*
X179387500Y-109857910D01*
X179635696Y-109857910D01*
X179676303Y-109992000D01*
X179635696Y-110126090D01*
X180467000Y-110957394D01*
X181298304Y-110126090D01*
X181257697Y-109992000D01*
X181298304Y-109857910D01*
X180467000Y-109026606D01*
X179635696Y-109857910D01*
X179387500Y-109857910D01*
X179387500Y-109850152D01*
X179346730Y-109645186D01*
X179456091Y-109678305D01*
X180287395Y-108847001D01*
X179456091Y-108015697D01*
X179347576Y-108048559D01*
X179387500Y-107847848D01*
X179387500Y-107560154D01*
X179383231Y-107538691D01*
X179535985Y-107691445D01*
X179655348Y-107771200D01*
X179635696Y-107836092D01*
X180467000Y-108667396D01*
X181298304Y-107836092D01*
X181278652Y-107771200D01*
X181398015Y-107691445D01*
X181550801Y-107538659D01*
X181546500Y-107560281D01*
X181546500Y-107847975D01*
X181586397Y-108048551D01*
X181477909Y-108015697D01*
X180646605Y-108847001D01*
X181477909Y-109678305D01*
X181587311Y-109645174D01*
X181546500Y-109850345D01*
X181546500Y-110138039D01*
X181586383Y-110338545D01*
X181477909Y-110305695D01*
X180646605Y-111136999D01*
X181477909Y-111968303D01*
X181587325Y-111935168D01*
X181546500Y-112140409D01*
X181546500Y-112428103D01*
X181586369Y-112628541D01*
X181477909Y-112595695D01*
X180646605Y-113426999D01*
X181477909Y-114258303D01*
X181724481Y-114183632D01*
X181847931Y-113923771D01*
X181918313Y-113644819D01*
X181932921Y-113357497D01*
X181918860Y-113261576D01*
X182075985Y-113418701D01*
X182315194Y-113578535D01*
X182580988Y-113688630D01*
X182863153Y-113744756D01*
X183150847Y-113744756D01*
X183433012Y-113688630D01*
X183698806Y-113578535D01*
X183938015Y-113418701D01*
X184141445Y-113215271D01*
X184301279Y-112976062D01*
X184411374Y-112710268D01*
X184450678Y-112512672D01*
X185225009Y-113287003D01*
X185248807Y-113316001D01*
X185277805Y-113339799D01*
X185364532Y-113410974D01*
X185496561Y-113481546D01*
X185639822Y-113525003D01*
X185788808Y-113539677D01*
X185826141Y-113536000D01*
X185846225Y-113536000D01*
X185907038Y-113627013D01*
X186092987Y-113812962D01*
X186311641Y-113959061D01*
X186554595Y-114059696D01*
X186812514Y-114111000D01*
X187075486Y-114111000D01*
X187333405Y-114059696D01*
X187576359Y-113959061D01*
X187795013Y-113812962D01*
X187980962Y-113627013D01*
X188127061Y-113408359D01*
X188227696Y-113165405D01*
X188279000Y-112907486D01*
X188279000Y-112644514D01*
X193229000Y-112644514D01*
X193229000Y-112907486D01*
X193280304Y-113165405D01*
X193380939Y-113408359D01*
X193527038Y-113627013D01*
X193712987Y-113812962D01*
X193931641Y-113959061D01*
X194174595Y-114059696D01*
X194432514Y-114111000D01*
X194695486Y-114111000D01*
X194953405Y-114059696D01*
X195196359Y-113959061D01*
X195415013Y-113812962D01*
X195600962Y-113627013D01*
X195747061Y-113408359D01*
X195847696Y-113165405D01*
X195899000Y-112907486D01*
X195899000Y-112644514D01*
X195847696Y-112386595D01*
X195747061Y-112143641D01*
X195600962Y-111924987D01*
X195415013Y-111739038D01*
X195196359Y-111592939D01*
X194953405Y-111492304D01*
X194695486Y-111441000D01*
X194432514Y-111441000D01*
X194174595Y-111492304D01*
X193931641Y-111592939D01*
X193712987Y-111739038D01*
X193527038Y-111924987D01*
X193380939Y-112143641D01*
X193280304Y-112386595D01*
X193229000Y-112644514D01*
X188279000Y-112644514D01*
X188227696Y-112386595D01*
X188127061Y-112143641D01*
X187980962Y-111924987D01*
X187795013Y-111739038D01*
X187576359Y-111592939D01*
X187333405Y-111492304D01*
X187075486Y-111441000D01*
X186812514Y-111441000D01*
X186554595Y-111492304D01*
X186311641Y-111592939D01*
X186092987Y-111739038D01*
X185959817Y-111872208D01*
X184427374Y-110339765D01*
X184467500Y-110138039D01*
X184467500Y-109850345D01*
X184411374Y-109568180D01*
X184301279Y-109302386D01*
X184141445Y-109063177D01*
X184042268Y-108964000D01*
X185846225Y-108964000D01*
X185907038Y-109055013D01*
X186092987Y-109240962D01*
X186311641Y-109387061D01*
X186554595Y-109487696D01*
X186812514Y-109539000D01*
X187075486Y-109539000D01*
X187333405Y-109487696D01*
X187576359Y-109387061D01*
X187795013Y-109240962D01*
X187980962Y-109055013D01*
X188044905Y-108959314D01*
X188108986Y-108953003D01*
X188252247Y-108909546D01*
X188384276Y-108838974D01*
X188500001Y-108744001D01*
X188594974Y-108628276D01*
X188665546Y-108496247D01*
X188709003Y-108352986D01*
X188723677Y-108204000D01*
X188709003Y-108055014D01*
X188665546Y-107911753D01*
X188594974Y-107779724D01*
X188500001Y-107663999D01*
X188384276Y-107569026D01*
X188252247Y-107498454D01*
X188108986Y-107454997D01*
X188044905Y-107448686D01*
X187980962Y-107352987D01*
X187795013Y-107167038D01*
X187576359Y-107020939D01*
X187333405Y-106920304D01*
X187075486Y-106869000D01*
X186812514Y-106869000D01*
X186554595Y-106920304D01*
X186311641Y-107020939D01*
X186092987Y-107167038D01*
X185907038Y-107352987D01*
X185846225Y-107444000D01*
X184444370Y-107444000D01*
X184411374Y-107278116D01*
X184301279Y-107012322D01*
X184141445Y-106773113D01*
X183938015Y-106569683D01*
X183922170Y-106559096D01*
X183938015Y-106548509D01*
X184141445Y-106345079D01*
X184301279Y-106105870D01*
X184411374Y-105840076D01*
X184467500Y-105557911D01*
X184467500Y-105270217D01*
X184411374Y-104988052D01*
X184301279Y-104722258D01*
X184141445Y-104483049D01*
X183938015Y-104279619D01*
X183818637Y-104199853D01*
X183838304Y-104134909D01*
X183007000Y-103303605D01*
X182175696Y-104134909D01*
X182195363Y-104199853D01*
X182075985Y-104279619D01*
X181920859Y-104434745D01*
X181932921Y-104197498D01*
X181892834Y-103924034D01*
X181996091Y-103955304D01*
X182827395Y-103124000D01*
X183186605Y-103124000D01*
X184017909Y-103955304D01*
X184264481Y-103880633D01*
X184387931Y-103620772D01*
X184418273Y-103500514D01*
X185609000Y-103500514D01*
X185609000Y-103763486D01*
X185660304Y-104021405D01*
X185760939Y-104264359D01*
X185907038Y-104483013D01*
X186092987Y-104668962D01*
X186311641Y-104815061D01*
X186554595Y-104915696D01*
X186812514Y-104967000D01*
X187075486Y-104967000D01*
X187333405Y-104915696D01*
X187576359Y-104815061D01*
X187795013Y-104668962D01*
X187980962Y-104483013D01*
X188127061Y-104264359D01*
X188227696Y-104021405D01*
X188279000Y-103763486D01*
X188279000Y-103500514D01*
X193229000Y-103500514D01*
X193229000Y-103763486D01*
X193280304Y-104021405D01*
X193380939Y-104264359D01*
X193527038Y-104483013D01*
X193712987Y-104668962D01*
X193931641Y-104815061D01*
X194174595Y-104915696D01*
X194432514Y-104967000D01*
X194695486Y-104967000D01*
X194953405Y-104915696D01*
X195196359Y-104815061D01*
X195415013Y-104668962D01*
X195600962Y-104483013D01*
X195747061Y-104264359D01*
X195847696Y-104021405D01*
X195899000Y-103763486D01*
X195899000Y-103500514D01*
X195847696Y-103242595D01*
X195747061Y-102999641D01*
X195600962Y-102780987D01*
X195415013Y-102595038D01*
X195196359Y-102448939D01*
X194953405Y-102348304D01*
X194695486Y-102297000D01*
X194432514Y-102297000D01*
X194174595Y-102348304D01*
X193931641Y-102448939D01*
X193712987Y-102595038D01*
X193527038Y-102780987D01*
X193380939Y-102999641D01*
X193280304Y-103242595D01*
X193229000Y-103500514D01*
X188279000Y-103500514D01*
X188227696Y-103242595D01*
X188127061Y-102999641D01*
X187980962Y-102780987D01*
X187795013Y-102595038D01*
X187576359Y-102448939D01*
X187333405Y-102348304D01*
X187075486Y-102297000D01*
X186812514Y-102297000D01*
X186554595Y-102348304D01*
X186311641Y-102448939D01*
X186092987Y-102595038D01*
X185907038Y-102780987D01*
X185760939Y-102999641D01*
X185660304Y-103242595D01*
X185609000Y-103500514D01*
X184418273Y-103500514D01*
X184458313Y-103341820D01*
X184472921Y-103054498D01*
X184431194Y-102769846D01*
X184334737Y-102498804D01*
X184264481Y-102367367D01*
X184017909Y-102292696D01*
X183186605Y-103124000D01*
X182827395Y-103124000D01*
X181996091Y-102292696D01*
X181749519Y-102367367D01*
X181626069Y-102627228D01*
X181555687Y-102906180D01*
X181541079Y-103193502D01*
X181581166Y-103466966D01*
X181477909Y-103435696D01*
X180646605Y-104267000D01*
X181477909Y-105098304D01*
X181587284Y-105065181D01*
X181546500Y-105270217D01*
X181546500Y-105557911D01*
X181549760Y-105574300D01*
X181398015Y-105422555D01*
X181278653Y-105342800D01*
X181298304Y-105277909D01*
X180467000Y-104446605D01*
X179635696Y-105277909D01*
X179655347Y-105342800D01*
X179535985Y-105422555D01*
X179384224Y-105574316D01*
X179387500Y-105557847D01*
X179387500Y-105270153D01*
X179346729Y-105065185D01*
X179456091Y-105098304D01*
X180287395Y-104267000D01*
X179456091Y-103435696D01*
X179347576Y-103468558D01*
X179387500Y-103267847D01*
X179387500Y-103256091D01*
X179635696Y-103256091D01*
X180467000Y-104087395D01*
X181298304Y-103256091D01*
X181223633Y-103009519D01*
X180963772Y-102886069D01*
X180684820Y-102815687D01*
X180397498Y-102801079D01*
X180112846Y-102842806D01*
X179841804Y-102939263D01*
X179710367Y-103009519D01*
X179635696Y-103256091D01*
X179387500Y-103256091D01*
X179387500Y-102980153D01*
X179331374Y-102697988D01*
X179221279Y-102432194D01*
X179061445Y-102192985D01*
X178981551Y-102113091D01*
X182175696Y-102113091D01*
X183007000Y-102944395D01*
X183794966Y-102156429D01*
X200320000Y-102156429D01*
X200320000Y-102473571D01*
X200381871Y-102784620D01*
X200503237Y-103077621D01*
X200679431Y-103341315D01*
X200903685Y-103565569D01*
X201167379Y-103741763D01*
X201460380Y-103863129D01*
X201771429Y-103925000D01*
X202088571Y-103925000D01*
X202399620Y-103863129D01*
X202692621Y-103741763D01*
X202956315Y-103565569D01*
X203180569Y-103341315D01*
X203356763Y-103077621D01*
X203478129Y-102784620D01*
X203540000Y-102473571D01*
X203540000Y-102156429D01*
X203478129Y-101845380D01*
X203356763Y-101552379D01*
X203180569Y-101288685D01*
X202956315Y-101064431D01*
X202692621Y-100888237D01*
X202399620Y-100766871D01*
X202088571Y-100705000D01*
X201771429Y-100705000D01*
X201460380Y-100766871D01*
X201167379Y-100888237D01*
X200903685Y-101064431D01*
X200679431Y-101288685D01*
X200503237Y-101552379D01*
X200381871Y-101845380D01*
X200320000Y-102156429D01*
X183794966Y-102156429D01*
X183838304Y-102113091D01*
X183763633Y-101866519D01*
X183503772Y-101743069D01*
X183224820Y-101672687D01*
X182937498Y-101658079D01*
X182652846Y-101699806D01*
X182381804Y-101796263D01*
X182250367Y-101866519D01*
X182175696Y-102113091D01*
X178981551Y-102113091D01*
X178858015Y-101989555D01*
X178618806Y-101829721D01*
X178353012Y-101719626D01*
X178070847Y-101663500D01*
X177783153Y-101663500D01*
X177500988Y-101719626D01*
X177235194Y-101829721D01*
X176995985Y-101989555D01*
X176792555Y-102192985D01*
X176632721Y-102432194D01*
X176522626Y-102697988D01*
X176466500Y-102980153D01*
X176466500Y-103267847D01*
X176522626Y-103550012D01*
X176632721Y-103815806D01*
X176792555Y-104055015D01*
X176995985Y-104258445D01*
X177011782Y-104269000D01*
X176995985Y-104279555D01*
X176792555Y-104482985D01*
X176632721Y-104722194D01*
X176522626Y-104987988D01*
X176466500Y-105270153D01*
X176466500Y-105557847D01*
X176506625Y-105759572D01*
X175970000Y-106296198D01*
X175970000Y-99656429D01*
X197820000Y-99656429D01*
X197820000Y-99973571D01*
X197881871Y-100284620D01*
X198003237Y-100577621D01*
X198179431Y-100841315D01*
X198403685Y-101065569D01*
X198667379Y-101241763D01*
X198960380Y-101363129D01*
X199271429Y-101425000D01*
X199588571Y-101425000D01*
X199899620Y-101363129D01*
X200192621Y-101241763D01*
X200456315Y-101065569D01*
X200680569Y-100841315D01*
X200856763Y-100577621D01*
X200978129Y-100284620D01*
X201040000Y-99973571D01*
X201040000Y-99656429D01*
X201035592Y-99634268D01*
X205095000Y-99634268D01*
X205095000Y-99995732D01*
X205165518Y-100350250D01*
X205303844Y-100684199D01*
X205504662Y-100984744D01*
X205760256Y-101240338D01*
X206060801Y-101441156D01*
X206394750Y-101579482D01*
X206749268Y-101650000D01*
X207110732Y-101650000D01*
X207465250Y-101579482D01*
X207799199Y-101441156D01*
X208099744Y-101240338D01*
X208355338Y-100984744D01*
X208556156Y-100684199D01*
X208694482Y-100350250D01*
X208765000Y-99995732D01*
X208765000Y-99634268D01*
X208694482Y-99279750D01*
X208556156Y-98945801D01*
X208355338Y-98645256D01*
X208099744Y-98389662D01*
X207799199Y-98188844D01*
X207465250Y-98050518D01*
X207110732Y-97980000D01*
X206749268Y-97980000D01*
X206394750Y-98050518D01*
X206060801Y-98188844D01*
X205760256Y-98389662D01*
X205504662Y-98645256D01*
X205303844Y-98945801D01*
X205165518Y-99279750D01*
X205095000Y-99634268D01*
X201035592Y-99634268D01*
X200978129Y-99345380D01*
X200856763Y-99052379D01*
X200680569Y-98788685D01*
X200456315Y-98564431D01*
X200192621Y-98388237D01*
X199899620Y-98266871D01*
X199588571Y-98205000D01*
X199271429Y-98205000D01*
X198960380Y-98266871D01*
X198667379Y-98388237D01*
X198403685Y-98564431D01*
X198179431Y-98788685D01*
X198003237Y-99052379D01*
X197881871Y-99345380D01*
X197820000Y-99656429D01*
X175970000Y-99656429D01*
X175970000Y-92785000D01*
X179351449Y-92785000D01*
X179263859Y-92821281D01*
G37*
X179263859Y-92821281D02*
X178847844Y-93099253D01*
X178494053Y-93453044D01*
X178216081Y-93869059D01*
X178024611Y-94331309D01*
X177927000Y-94822032D01*
X177927000Y-95322368D01*
X178024611Y-95813091D01*
X178216081Y-96275341D01*
X178494053Y-96691356D01*
X178847844Y-97045147D01*
X179263859Y-97323119D01*
X179726109Y-97514589D01*
X180216832Y-97612200D01*
X180717168Y-97612200D01*
X181207891Y-97514589D01*
X181670141Y-97323119D01*
X182086156Y-97045147D01*
X182439947Y-96691356D01*
X182717919Y-96275341D01*
X182909389Y-95813091D01*
X183007000Y-95322368D01*
X183007000Y-94822032D01*
X182909389Y-94331309D01*
X182717919Y-93869059D01*
X182439947Y-93453044D01*
X182086156Y-93099253D01*
X181670141Y-92821281D01*
X181582551Y-92785000D01*
X213920001Y-92785000D01*
X213920000Y-123115000D01*
X175970000Y-123115000D01*
X175970000Y-120069632D01*
X177927000Y-120069632D01*
X177927000Y-120569968D01*
X178024611Y-121060691D01*
X178216081Y-121522941D01*
X178494053Y-121938956D01*
X178847844Y-122292747D01*
X179263859Y-122570719D01*
X179726109Y-122762189D01*
X180216832Y-122859800D01*
X180717168Y-122859800D01*
X181207891Y-122762189D01*
X181670141Y-122570719D01*
X182086156Y-122292747D01*
X182439947Y-121938956D01*
X182717919Y-121522941D01*
X182909389Y-121060691D01*
X183007000Y-120569968D01*
X183007000Y-120069632D01*
X182909389Y-119578909D01*
X182717919Y-119116659D01*
X182439947Y-118700644D01*
X182086156Y-118346853D01*
X181670141Y-118068881D01*
X181207891Y-117877411D01*
X180717168Y-117779800D01*
X180216832Y-117779800D01*
X179726109Y-117877411D01*
X179263859Y-118068881D01*
X178847844Y-118346853D01*
X178494053Y-118700644D01*
X178216081Y-119116659D01*
X178024611Y-119578909D01*
X177927000Y-120069632D01*
X175970000Y-120069632D01*
X175970000Y-113740952D01*
X179755073Y-117526026D01*
X179778867Y-117555019D01*
X179807860Y-117578813D01*
X179807865Y-117578818D01*
X179894592Y-117649993D01*
X180026621Y-117720565D01*
X180169882Y-117764022D01*
X180318868Y-117778696D01*
X180356211Y-117775018D01*
X200389480Y-117775020D01*
X200426802Y-117778696D01*
X200464124Y-117775020D01*
X200464134Y-117775020D01*
X200575787Y-117764023D01*
X200719048Y-117720566D01*
X200719052Y-117720564D01*
X200851078Y-117649994D01*
X200937804Y-117578819D01*
X200937805Y-117578818D01*
X200966802Y-117555021D01*
X200990600Y-117526023D01*
X203741004Y-114775620D01*
X203770002Y-114751822D01*
X203825268Y-114684480D01*
X203864975Y-114636098D01*
X203865953Y-114634268D01*
X205095000Y-114634268D01*
X205095000Y-114995732D01*
X205165518Y-115350250D01*
X205303844Y-115684199D01*
X205504662Y-115984744D01*
X205760256Y-116240338D01*
X206060801Y-116441156D01*
X206394750Y-116579482D01*
X206749268Y-116650000D01*
X207110732Y-116650000D01*
X207465250Y-116579482D01*
X207799199Y-116441156D01*
X208099744Y-116240338D01*
X208355338Y-115984744D01*
X208556156Y-115684199D01*
X208694482Y-115350250D01*
X208765000Y-114995732D01*
X208765000Y-114634268D01*
X208694482Y-114279750D01*
X208556156Y-113945801D01*
X208355338Y-113645256D01*
X208099744Y-113389662D01*
X207799199Y-113188844D01*
X207465250Y-113050518D01*
X207110732Y-112980000D01*
X206749268Y-112980000D01*
X206394750Y-113050518D01*
X206060801Y-113188844D01*
X205760256Y-113389662D01*
X205504662Y-113645256D01*
X205303844Y-113945801D01*
X205165518Y-114279750D01*
X205095000Y-114634268D01*
X203865953Y-114634268D01*
X203935547Y-114504068D01*
X203979004Y-114360807D01*
X203990001Y-114249154D01*
X203990001Y-114249145D01*
X203993677Y-114211822D01*
X203990001Y-114174499D01*
X203990001Y-111728321D01*
X203993677Y-111690998D01*
X203990001Y-111653675D01*
X203990001Y-111653666D01*
X203979004Y-111542013D01*
X203935547Y-111398752D01*
X203864975Y-111266723D01*
X203770002Y-111150998D01*
X203741005Y-111127201D01*
X202270233Y-109656429D01*
X210320000Y-109656429D01*
X210320000Y-109973571D01*
X210381871Y-110284620D01*
X210503237Y-110577621D01*
X210679431Y-110841315D01*
X210903685Y-111065569D01*
X211167379Y-111241763D01*
X211460380Y-111363129D01*
X211771429Y-111425000D01*
X212088571Y-111425000D01*
X212399620Y-111363129D01*
X212692621Y-111241763D01*
X212956315Y-111065569D01*
X213180569Y-110841315D01*
X213356763Y-110577621D01*
X213478129Y-110284620D01*
X213540000Y-109973571D01*
X213540000Y-109656429D01*
X213478129Y-109345380D01*
X213356763Y-109052379D01*
X213180569Y-108788685D01*
X212956315Y-108564431D01*
X212692621Y-108388237D01*
X212399620Y-108266871D01*
X212088571Y-108205000D01*
X211771429Y-108205000D01*
X211460380Y-108266871D01*
X211167379Y-108388237D01*
X210903685Y-108564431D01*
X210679431Y-108788685D01*
X210503237Y-109052379D01*
X210381871Y-109345380D01*
X210320000Y-109656429D01*
X202270233Y-109656429D01*
X201917806Y-109304003D01*
X201894003Y-109274999D01*
X201778278Y-109180026D01*
X201646249Y-109109454D01*
X201502988Y-109065997D01*
X201391335Y-109055000D01*
X201391324Y-109055000D01*
X201354002Y-109051324D01*
X201316680Y-109055000D01*
X200857849Y-109055000D01*
X200856763Y-109052379D01*
X200680569Y-108788685D01*
X200456315Y-108564431D01*
X200258992Y-108432584D01*
X200992021Y-108432584D01*
X201084766Y-108694429D01*
X201370120Y-108832820D01*
X201676990Y-108912883D01*
X201993584Y-108931540D01*
X202307733Y-108888074D01*
X202607367Y-108784156D01*
X202775234Y-108694429D01*
X202867979Y-108432584D01*
X201930000Y-107494605D01*
X200992021Y-108432584D01*
X200258992Y-108432584D01*
X200192621Y-108388237D01*
X200052670Y-108330267D01*
X200064974Y-108315275D01*
X200135546Y-108183245D01*
X200151693Y-108130013D01*
X200179003Y-108039984D01*
X200190000Y-107928331D01*
X200190000Y-107928322D01*
X200193676Y-107890999D01*
X200190000Y-107853676D01*
X200190000Y-107378584D01*
X200313460Y-107378584D01*
X200356926Y-107692733D01*
X200460844Y-107992367D01*
X200550571Y-108160234D01*
X200812416Y-108252979D01*
X201750395Y-107315000D01*
X202109605Y-107315000D01*
X203047584Y-108252979D01*
X203309429Y-108160234D01*
X203447820Y-107874880D01*
X203527883Y-107568010D01*
X203546540Y-107251416D01*
X203503074Y-106937267D01*
X203399156Y-106637633D01*
X203309429Y-106469766D01*
X203047584Y-106377021D01*
X202109605Y-107315000D01*
X201750395Y-107315000D01*
X200812416Y-106377021D01*
X200550571Y-106469766D01*
X200412180Y-106755120D01*
X200332117Y-107061990D01*
X200313460Y-107378584D01*
X200190000Y-107378584D01*
X200190000Y-106242849D01*
X200192621Y-106241763D01*
X200258991Y-106197416D01*
X200992021Y-106197416D01*
X201930000Y-107135395D01*
X202867979Y-106197416D01*
X202775234Y-105935571D01*
X202489880Y-105797180D01*
X202183010Y-105717117D01*
X201866416Y-105698460D01*
X201552267Y-105741926D01*
X201252633Y-105845844D01*
X201084766Y-105935571D01*
X200992021Y-106197416D01*
X200258991Y-106197416D01*
X200456315Y-106065569D01*
X200680569Y-105841315D01*
X200856763Y-105577621D01*
X200978129Y-105284620D01*
X201040000Y-104973571D01*
X201040000Y-104656429D01*
X210320000Y-104656429D01*
X210320000Y-104973571D01*
X210381871Y-105284620D01*
X210503237Y-105577621D01*
X210679431Y-105841315D01*
X210903685Y-106065569D01*
X211167379Y-106241763D01*
X211460380Y-106363129D01*
X211771429Y-106425000D01*
X212088571Y-106425000D01*
X212399620Y-106363129D01*
X212692621Y-106241763D01*
X212956315Y-106065569D01*
X213180569Y-105841315D01*
X213356763Y-105577621D01*
X213478129Y-105284620D01*
X213540000Y-104973571D01*
X213540000Y-104656429D01*
X213478129Y-104345380D01*
X213356763Y-104052379D01*
X213180569Y-103788685D01*
X212956315Y-103564431D01*
X212692621Y-103388237D01*
X212399620Y-103266871D01*
X212088571Y-103205000D01*
X211771429Y-103205000D01*
X211460380Y-103266871D01*
X211167379Y-103388237D01*
X210903685Y-103564431D01*
X210679431Y-103788685D01*
X210503237Y-104052379D01*
X210381871Y-104345380D01*
X210320000Y-104656429D01*
X201040000Y-104656429D01*
X200978129Y-104345380D01*
X200856763Y-104052379D01*
X200680569Y-103788685D01*
X200456315Y-103564431D01*
X200192621Y-103388237D01*
X199899620Y-103266871D01*
X199588571Y-103205000D01*
X199271429Y-103205000D01*
X198960380Y-103266871D01*
X198667379Y-103388237D01*
X198403685Y-103564431D01*
X198179431Y-103788685D01*
X198003237Y-104052379D01*
X197881871Y-104345380D01*
X197820000Y-104656429D01*
X197820000Y-104973571D01*
X197881871Y-105284620D01*
X198003237Y-105577621D01*
X198179431Y-105841315D01*
X198403685Y-106065569D01*
X198667379Y-106241763D01*
X198670000Y-106242849D01*
X198670001Y-107576195D01*
X198482239Y-107763957D01*
X198540000Y-107473571D01*
X198540000Y-107156429D01*
X198478129Y-106845380D01*
X198356763Y-106552379D01*
X198180569Y-106288685D01*
X197956315Y-106064431D01*
X197692621Y-105888237D01*
X197399620Y-105766871D01*
X197088571Y-105705000D01*
X196771429Y-105705000D01*
X196460380Y-105766871D01*
X196167379Y-105888237D01*
X195903685Y-106064431D01*
X195679431Y-106288685D01*
X195503237Y-106552379D01*
X195381871Y-106845380D01*
X195329284Y-107109756D01*
X195196359Y-107020939D01*
X194953405Y-106920304D01*
X194695486Y-106869000D01*
X194432514Y-106869000D01*
X194174595Y-106920304D01*
X193931641Y-107020939D01*
X193712987Y-107167038D01*
X193527038Y-107352987D01*
X193380939Y-107571641D01*
X193280304Y-107814595D01*
X193229000Y-108072514D01*
X193229000Y-108335486D01*
X193280304Y-108593405D01*
X193380939Y-108836359D01*
X193527038Y-109055013D01*
X193712987Y-109240962D01*
X193931641Y-109387061D01*
X194174595Y-109487696D01*
X194432514Y-109539000D01*
X194695486Y-109539000D01*
X194953405Y-109487696D01*
X195196359Y-109387061D01*
X195415013Y-109240962D01*
X195600962Y-109055013D01*
X195747061Y-108836359D01*
X195847696Y-108593405D01*
X195861604Y-108523488D01*
X195903685Y-108565569D01*
X196167379Y-108741763D01*
X196460380Y-108863129D01*
X196771429Y-108925000D01*
X197088571Y-108925000D01*
X197399620Y-108863129D01*
X197455971Y-108839787D01*
X197445302Y-108859747D01*
X197424453Y-108898753D01*
X197380996Y-109042014D01*
X197369999Y-109153667D01*
X197369999Y-109153677D01*
X197366323Y-109190999D01*
X197369999Y-109228322D01*
X197370000Y-110588257D01*
X197366323Y-110625589D01*
X197380997Y-110774574D01*
X197424453Y-110917835D01*
X197495025Y-111049865D01*
X197559514Y-111128444D01*
X197589999Y-111165590D01*
X197618997Y-111189388D01*
X199646039Y-113216431D01*
X199588571Y-113205000D01*
X199271429Y-113205000D01*
X198960380Y-113266871D01*
X198667379Y-113388237D01*
X198403685Y-113564431D01*
X198179431Y-113788685D01*
X198003237Y-114052379D01*
X197881871Y-114345380D01*
X197820000Y-114656429D01*
X197820000Y-114973571D01*
X197881871Y-115284620D01*
X198003237Y-115577621D01*
X198155173Y-115805010D01*
X180820071Y-115805010D01*
X179544334Y-114529273D01*
X179635697Y-114437910D01*
X179710367Y-114684480D01*
X179970228Y-114807930D01*
X180249180Y-114878312D01*
X180536502Y-114892920D01*
X180821154Y-114851193D01*
X181092196Y-114754736D01*
X181223633Y-114684480D01*
X181298304Y-114437908D01*
X180467000Y-113606604D01*
X180452858Y-113620747D01*
X180273253Y-113441142D01*
X180287395Y-113426999D01*
X179456091Y-112595695D01*
X179347576Y-112628557D01*
X179387500Y-112427846D01*
X179387500Y-112147908D01*
X179635696Y-112147908D01*
X179676304Y-112281999D01*
X179635696Y-112416090D01*
X180467000Y-113247394D01*
X181298304Y-112416090D01*
X181257696Y-112281999D01*
X181298304Y-112147908D01*
X180467000Y-111316604D01*
X179635696Y-112147908D01*
X179387500Y-112147908D01*
X179387500Y-112140152D01*
X179346729Y-111935184D01*
X179456091Y-111968303D01*
X180287395Y-111136999D01*
X179456091Y-110305695D01*
X179347576Y-110338557D01*
X179387500Y-110137846D01*
X179387500Y-109857910D01*
X179635696Y-109857910D01*
X179676303Y-109992000D01*
X179635696Y-110126090D01*
X180467000Y-110957394D01*
X181298304Y-110126090D01*
X181257697Y-109992000D01*
X181298304Y-109857910D01*
X180467000Y-109026606D01*
X179635696Y-109857910D01*
X179387500Y-109857910D01*
X179387500Y-109850152D01*
X179346730Y-109645186D01*
X179456091Y-109678305D01*
X180287395Y-108847001D01*
X179456091Y-108015697D01*
X179347576Y-108048559D01*
X179387500Y-107847848D01*
X179387500Y-107560154D01*
X179383231Y-107538691D01*
X179535985Y-107691445D01*
X179655348Y-107771200D01*
X179635696Y-107836092D01*
X180467000Y-108667396D01*
X181298304Y-107836092D01*
X181278652Y-107771200D01*
X181398015Y-107691445D01*
X181550801Y-107538659D01*
X181546500Y-107560281D01*
X181546500Y-107847975D01*
X181586397Y-108048551D01*
X181477909Y-108015697D01*
X180646605Y-108847001D01*
X181477909Y-109678305D01*
X181587311Y-109645174D01*
X181546500Y-109850345D01*
X181546500Y-110138039D01*
X181586383Y-110338545D01*
X181477909Y-110305695D01*
X180646605Y-111136999D01*
X181477909Y-111968303D01*
X181587325Y-111935168D01*
X181546500Y-112140409D01*
X181546500Y-112428103D01*
X181586369Y-112628541D01*
X181477909Y-112595695D01*
X180646605Y-113426999D01*
X181477909Y-114258303D01*
X181724481Y-114183632D01*
X181847931Y-113923771D01*
X181918313Y-113644819D01*
X181932921Y-113357497D01*
X181918860Y-113261576D01*
X182075985Y-113418701D01*
X182315194Y-113578535D01*
X182580988Y-113688630D01*
X182863153Y-113744756D01*
X183150847Y-113744756D01*
X183433012Y-113688630D01*
X183698806Y-113578535D01*
X183938015Y-113418701D01*
X184141445Y-113215271D01*
X184301279Y-112976062D01*
X184411374Y-112710268D01*
X184450678Y-112512672D01*
X185225009Y-113287003D01*
X185248807Y-113316001D01*
X185277805Y-113339799D01*
X185364532Y-113410974D01*
X185496561Y-113481546D01*
X185639822Y-113525003D01*
X185788808Y-113539677D01*
X185826141Y-113536000D01*
X185846225Y-113536000D01*
X185907038Y-113627013D01*
X186092987Y-113812962D01*
X186311641Y-113959061D01*
X186554595Y-114059696D01*
X186812514Y-114111000D01*
X187075486Y-114111000D01*
X187333405Y-114059696D01*
X187576359Y-113959061D01*
X187795013Y-113812962D01*
X187980962Y-113627013D01*
X188127061Y-113408359D01*
X188227696Y-113165405D01*
X188279000Y-112907486D01*
X188279000Y-112644514D01*
X193229000Y-112644514D01*
X193229000Y-112907486D01*
X193280304Y-113165405D01*
X193380939Y-113408359D01*
X193527038Y-113627013D01*
X193712987Y-113812962D01*
X193931641Y-113959061D01*
X194174595Y-114059696D01*
X194432514Y-114111000D01*
X194695486Y-114111000D01*
X194953405Y-114059696D01*
X195196359Y-113959061D01*
X195415013Y-113812962D01*
X195600962Y-113627013D01*
X195747061Y-113408359D01*
X195847696Y-113165405D01*
X195899000Y-112907486D01*
X195899000Y-112644514D01*
X195847696Y-112386595D01*
X195747061Y-112143641D01*
X195600962Y-111924987D01*
X195415013Y-111739038D01*
X195196359Y-111592939D01*
X194953405Y-111492304D01*
X194695486Y-111441000D01*
X194432514Y-111441000D01*
X194174595Y-111492304D01*
X193931641Y-111592939D01*
X193712987Y-111739038D01*
X193527038Y-111924987D01*
X193380939Y-112143641D01*
X193280304Y-112386595D01*
X193229000Y-112644514D01*
X188279000Y-112644514D01*
X188227696Y-112386595D01*
X188127061Y-112143641D01*
X187980962Y-111924987D01*
X187795013Y-111739038D01*
X187576359Y-111592939D01*
X187333405Y-111492304D01*
X187075486Y-111441000D01*
X186812514Y-111441000D01*
X186554595Y-111492304D01*
X186311641Y-111592939D01*
X186092987Y-111739038D01*
X185959817Y-111872208D01*
X184427374Y-110339765D01*
X184467500Y-110138039D01*
X184467500Y-109850345D01*
X184411374Y-109568180D01*
X184301279Y-109302386D01*
X184141445Y-109063177D01*
X184042268Y-108964000D01*
X185846225Y-108964000D01*
X185907038Y-109055013D01*
X186092987Y-109240962D01*
X186311641Y-109387061D01*
X186554595Y-109487696D01*
X186812514Y-109539000D01*
X187075486Y-109539000D01*
X187333405Y-109487696D01*
X187576359Y-109387061D01*
X187795013Y-109240962D01*
X187980962Y-109055013D01*
X188044905Y-108959314D01*
X188108986Y-108953003D01*
X188252247Y-108909546D01*
X188384276Y-108838974D01*
X188500001Y-108744001D01*
X188594974Y-108628276D01*
X188665546Y-108496247D01*
X188709003Y-108352986D01*
X188723677Y-108204000D01*
X188709003Y-108055014D01*
X188665546Y-107911753D01*
X188594974Y-107779724D01*
X188500001Y-107663999D01*
X188384276Y-107569026D01*
X188252247Y-107498454D01*
X188108986Y-107454997D01*
X188044905Y-107448686D01*
X187980962Y-107352987D01*
X187795013Y-107167038D01*
X187576359Y-107020939D01*
X187333405Y-106920304D01*
X187075486Y-106869000D01*
X186812514Y-106869000D01*
X186554595Y-106920304D01*
X186311641Y-107020939D01*
X186092987Y-107167038D01*
X185907038Y-107352987D01*
X185846225Y-107444000D01*
X184444370Y-107444000D01*
X184411374Y-107278116D01*
X184301279Y-107012322D01*
X184141445Y-106773113D01*
X183938015Y-106569683D01*
X183922170Y-106559096D01*
X183938015Y-106548509D01*
X184141445Y-106345079D01*
X184301279Y-106105870D01*
X184411374Y-105840076D01*
X184467500Y-105557911D01*
X184467500Y-105270217D01*
X184411374Y-104988052D01*
X184301279Y-104722258D01*
X184141445Y-104483049D01*
X183938015Y-104279619D01*
X183818637Y-104199853D01*
X183838304Y-104134909D01*
X183007000Y-103303605D01*
X182175696Y-104134909D01*
X182195363Y-104199853D01*
X182075985Y-104279619D01*
X181920859Y-104434745D01*
X181932921Y-104197498D01*
X181892834Y-103924034D01*
X181996091Y-103955304D01*
X182827395Y-103124000D01*
X183186605Y-103124000D01*
X184017909Y-103955304D01*
X184264481Y-103880633D01*
X184387931Y-103620772D01*
X184418273Y-103500514D01*
X185609000Y-103500514D01*
X185609000Y-103763486D01*
X185660304Y-104021405D01*
X185760939Y-104264359D01*
X185907038Y-104483013D01*
X186092987Y-104668962D01*
X186311641Y-104815061D01*
X186554595Y-104915696D01*
X186812514Y-104967000D01*
X187075486Y-104967000D01*
X187333405Y-104915696D01*
X187576359Y-104815061D01*
X187795013Y-104668962D01*
X187980962Y-104483013D01*
X188127061Y-104264359D01*
X188227696Y-104021405D01*
X188279000Y-103763486D01*
X188279000Y-103500514D01*
X193229000Y-103500514D01*
X193229000Y-103763486D01*
X193280304Y-104021405D01*
X193380939Y-104264359D01*
X193527038Y-104483013D01*
X193712987Y-104668962D01*
X193931641Y-104815061D01*
X194174595Y-104915696D01*
X194432514Y-104967000D01*
X194695486Y-104967000D01*
X194953405Y-104915696D01*
X195196359Y-104815061D01*
X195415013Y-104668962D01*
X195600962Y-104483013D01*
X195747061Y-104264359D01*
X195847696Y-104021405D01*
X195899000Y-103763486D01*
X195899000Y-103500514D01*
X195847696Y-103242595D01*
X195747061Y-102999641D01*
X195600962Y-102780987D01*
X195415013Y-102595038D01*
X195196359Y-102448939D01*
X194953405Y-102348304D01*
X194695486Y-102297000D01*
X194432514Y-102297000D01*
X194174595Y-102348304D01*
X193931641Y-102448939D01*
X193712987Y-102595038D01*
X193527038Y-102780987D01*
X193380939Y-102999641D01*
X193280304Y-103242595D01*
X193229000Y-103500514D01*
X188279000Y-103500514D01*
X188227696Y-103242595D01*
X188127061Y-102999641D01*
X187980962Y-102780987D01*
X187795013Y-102595038D01*
X187576359Y-102448939D01*
X187333405Y-102348304D01*
X187075486Y-102297000D01*
X186812514Y-102297000D01*
X186554595Y-102348304D01*
X186311641Y-102448939D01*
X186092987Y-102595038D01*
X185907038Y-102780987D01*
X185760939Y-102999641D01*
X185660304Y-103242595D01*
X185609000Y-103500514D01*
X184418273Y-103500514D01*
X184458313Y-103341820D01*
X184472921Y-103054498D01*
X184431194Y-102769846D01*
X184334737Y-102498804D01*
X184264481Y-102367367D01*
X184017909Y-102292696D01*
X183186605Y-103124000D01*
X182827395Y-103124000D01*
X181996091Y-102292696D01*
X181749519Y-102367367D01*
X181626069Y-102627228D01*
X181555687Y-102906180D01*
X181541079Y-103193502D01*
X181581166Y-103466966D01*
X181477909Y-103435696D01*
X180646605Y-104267000D01*
X181477909Y-105098304D01*
X181587284Y-105065181D01*
X181546500Y-105270217D01*
X181546500Y-105557911D01*
X181549760Y-105574300D01*
X181398015Y-105422555D01*
X181278653Y-105342800D01*
X181298304Y-105277909D01*
X180467000Y-104446605D01*
X179635696Y-105277909D01*
X179655347Y-105342800D01*
X179535985Y-105422555D01*
X179384224Y-105574316D01*
X179387500Y-105557847D01*
X179387500Y-105270153D01*
X179346729Y-105065185D01*
X179456091Y-105098304D01*
X180287395Y-104267000D01*
X179456091Y-103435696D01*
X179347576Y-103468558D01*
X179387500Y-103267847D01*
X179387500Y-103256091D01*
X179635696Y-103256091D01*
X180467000Y-104087395D01*
X181298304Y-103256091D01*
X181223633Y-103009519D01*
X180963772Y-102886069D01*
X180684820Y-102815687D01*
X180397498Y-102801079D01*
X180112846Y-102842806D01*
X179841804Y-102939263D01*
X179710367Y-103009519D01*
X179635696Y-103256091D01*
X179387500Y-103256091D01*
X179387500Y-102980153D01*
X179331374Y-102697988D01*
X179221279Y-102432194D01*
X179061445Y-102192985D01*
X178981551Y-102113091D01*
X182175696Y-102113091D01*
X183007000Y-102944395D01*
X183794966Y-102156429D01*
X200320000Y-102156429D01*
X200320000Y-102473571D01*
X200381871Y-102784620D01*
X200503237Y-103077621D01*
X200679431Y-103341315D01*
X200903685Y-103565569D01*
X201167379Y-103741763D01*
X201460380Y-103863129D01*
X201771429Y-103925000D01*
X202088571Y-103925000D01*
X202399620Y-103863129D01*
X202692621Y-103741763D01*
X202956315Y-103565569D01*
X203180569Y-103341315D01*
X203356763Y-103077621D01*
X203478129Y-102784620D01*
X203540000Y-102473571D01*
X203540000Y-102156429D01*
X203478129Y-101845380D01*
X203356763Y-101552379D01*
X203180569Y-101288685D01*
X202956315Y-101064431D01*
X202692621Y-100888237D01*
X202399620Y-100766871D01*
X202088571Y-100705000D01*
X201771429Y-100705000D01*
X201460380Y-100766871D01*
X201167379Y-100888237D01*
X200903685Y-101064431D01*
X200679431Y-101288685D01*
X200503237Y-101552379D01*
X200381871Y-101845380D01*
X200320000Y-102156429D01*
X183794966Y-102156429D01*
X183838304Y-102113091D01*
X183763633Y-101866519D01*
X183503772Y-101743069D01*
X183224820Y-101672687D01*
X182937498Y-101658079D01*
X182652846Y-101699806D01*
X182381804Y-101796263D01*
X182250367Y-101866519D01*
X182175696Y-102113091D01*
X178981551Y-102113091D01*
X178858015Y-101989555D01*
X178618806Y-101829721D01*
X178353012Y-101719626D01*
X178070847Y-101663500D01*
X177783153Y-101663500D01*
X177500988Y-101719626D01*
X177235194Y-101829721D01*
X176995985Y-101989555D01*
X176792555Y-102192985D01*
X176632721Y-102432194D01*
X176522626Y-102697988D01*
X176466500Y-102980153D01*
X176466500Y-103267847D01*
X176522626Y-103550012D01*
X176632721Y-103815806D01*
X176792555Y-104055015D01*
X176995985Y-104258445D01*
X177011782Y-104269000D01*
X176995985Y-104279555D01*
X176792555Y-104482985D01*
X176632721Y-104722194D01*
X176522626Y-104987988D01*
X176466500Y-105270153D01*
X176466500Y-105557847D01*
X176506625Y-105759572D01*
X175970000Y-106296198D01*
X175970000Y-99656429D01*
X197820000Y-99656429D01*
X197820000Y-99973571D01*
X197881871Y-100284620D01*
X198003237Y-100577621D01*
X198179431Y-100841315D01*
X198403685Y-101065569D01*
X198667379Y-101241763D01*
X198960380Y-101363129D01*
X199271429Y-101425000D01*
X199588571Y-101425000D01*
X199899620Y-101363129D01*
X200192621Y-101241763D01*
X200456315Y-101065569D01*
X200680569Y-100841315D01*
X200856763Y-100577621D01*
X200978129Y-100284620D01*
X201040000Y-99973571D01*
X201040000Y-99656429D01*
X201035592Y-99634268D01*
X205095000Y-99634268D01*
X205095000Y-99995732D01*
X205165518Y-100350250D01*
X205303844Y-100684199D01*
X205504662Y-100984744D01*
X205760256Y-101240338D01*
X206060801Y-101441156D01*
X206394750Y-101579482D01*
X206749268Y-101650000D01*
X207110732Y-101650000D01*
X207465250Y-101579482D01*
X207799199Y-101441156D01*
X208099744Y-101240338D01*
X208355338Y-100984744D01*
X208556156Y-100684199D01*
X208694482Y-100350250D01*
X208765000Y-99995732D01*
X208765000Y-99634268D01*
X208694482Y-99279750D01*
X208556156Y-98945801D01*
X208355338Y-98645256D01*
X208099744Y-98389662D01*
X207799199Y-98188844D01*
X207465250Y-98050518D01*
X207110732Y-97980000D01*
X206749268Y-97980000D01*
X206394750Y-98050518D01*
X206060801Y-98188844D01*
X205760256Y-98389662D01*
X205504662Y-98645256D01*
X205303844Y-98945801D01*
X205165518Y-99279750D01*
X205095000Y-99634268D01*
X201035592Y-99634268D01*
X200978129Y-99345380D01*
X200856763Y-99052379D01*
X200680569Y-98788685D01*
X200456315Y-98564431D01*
X200192621Y-98388237D01*
X199899620Y-98266871D01*
X199588571Y-98205000D01*
X199271429Y-98205000D01*
X198960380Y-98266871D01*
X198667379Y-98388237D01*
X198403685Y-98564431D01*
X198179431Y-98788685D01*
X198003237Y-99052379D01*
X197881871Y-99345380D01*
X197820000Y-99656429D01*
X175970000Y-99656429D01*
X175970000Y-92785000D01*
X179351449Y-92785000D01*
X179263859Y-92821281D01*
M02*
