G04 #@! TF.GenerationSoftware,KiCad,Pcbnew,(5.1.8-0-10_14)*
G04 #@! TF.CreationDate,2021-12-04T19:30:23-07:00*
G04 #@! TF.ProjectId,PC8801mkII VGA,50433838-3031-46d6-9b49-49205647412e,rev?*
G04 #@! TF.SameCoordinates,Original*
G04 #@! TF.FileFunction,Copper,L1,Top*
G04 #@! TF.FilePolarity,Positive*
%FSLAX46Y46*%
G04 Gerber Fmt 4.6, Leading zero omitted, Abs format (unit mm)*
G04 Created by KiCad (PCBNEW (5.1.8-0-10_14)) date 2021-12-04 19:30:23*
%MOMM*%
%LPD*%
G01*
G04 APERTURE LIST*
G04 #@! TA.AperFunction,ComponentPad*
%ADD10C,1.651000*%
G04 #@! TD*
G04 #@! TA.AperFunction,ComponentPad*
%ADD11C,3.810000*%
G04 #@! TD*
G04 #@! TA.AperFunction,ComponentPad*
%ADD12O,1.400000X1.400000*%
G04 #@! TD*
G04 #@! TA.AperFunction,ComponentPad*
%ADD13C,1.400000*%
G04 #@! TD*
G04 #@! TA.AperFunction,ComponentPad*
%ADD14C,1.950000*%
G04 #@! TD*
G04 #@! TA.AperFunction,ViaPad*
%ADD15C,0.800000*%
G04 #@! TD*
G04 #@! TA.AperFunction,Conductor*
%ADD16C,0.250000*%
G04 #@! TD*
G04 #@! TA.AperFunction,Conductor*
%ADD17C,0.500000*%
G04 #@! TD*
G04 APERTURE END LIST*
G04 #@! TA.AperFunction,SMDPad,CuDef*
G36*
G01*
X190304000Y-100886999D02*
X190304000Y-101787001D01*
G75*
G02*
X190054001Y-102037000I-249999J0D01*
G01*
X189403999Y-102037000D01*
G75*
G02*
X189154000Y-101787001I0J249999D01*
G01*
X189154000Y-100886999D01*
G75*
G02*
X189403999Y-100637000I249999J0D01*
G01*
X190054001Y-100637000D01*
G75*
G02*
X190304000Y-100886999I0J-249999D01*
G01*
G37*
G04 #@! TD.AperFunction*
G04 #@! TA.AperFunction,SMDPad,CuDef*
G36*
G01*
X192354000Y-100886999D02*
X192354000Y-101787001D01*
G75*
G02*
X192104001Y-102037000I-249999J0D01*
G01*
X191453999Y-102037000D01*
G75*
G02*
X191204000Y-101787001I0J249999D01*
G01*
X191204000Y-100886999D01*
G75*
G02*
X191453999Y-100637000I249999J0D01*
G01*
X192104001Y-100637000D01*
G75*
G02*
X192354000Y-100886999I0J-249999D01*
G01*
G37*
G04 #@! TD.AperFunction*
G04 #@! TA.AperFunction,SMDPad,CuDef*
G36*
G01*
X190313000Y-110039999D02*
X190313000Y-110940001D01*
G75*
G02*
X190063001Y-111190000I-249999J0D01*
G01*
X189412999Y-111190000D01*
G75*
G02*
X189163000Y-110940001I0J249999D01*
G01*
X189163000Y-110039999D01*
G75*
G02*
X189412999Y-109790000I249999J0D01*
G01*
X190063001Y-109790000D01*
G75*
G02*
X190313000Y-110039999I0J-249999D01*
G01*
G37*
G04 #@! TD.AperFunction*
G04 #@! TA.AperFunction,SMDPad,CuDef*
G36*
G01*
X192363000Y-110039999D02*
X192363000Y-110940001D01*
G75*
G02*
X192113001Y-111190000I-249999J0D01*
G01*
X191462999Y-111190000D01*
G75*
G02*
X191213000Y-110940001I0J249999D01*
G01*
X191213000Y-110039999D01*
G75*
G02*
X191462999Y-109790000I249999J0D01*
G01*
X192113001Y-109790000D01*
G75*
G02*
X192363000Y-110039999I0J-249999D01*
G01*
G37*
G04 #@! TD.AperFunction*
G04 #@! TA.AperFunction,SMDPad,CuDef*
G36*
G01*
X190295000Y-105467999D02*
X190295000Y-106368001D01*
G75*
G02*
X190045001Y-106618000I-249999J0D01*
G01*
X189394999Y-106618000D01*
G75*
G02*
X189145000Y-106368001I0J249999D01*
G01*
X189145000Y-105467999D01*
G75*
G02*
X189394999Y-105218000I249999J0D01*
G01*
X190045001Y-105218000D01*
G75*
G02*
X190295000Y-105467999I0J-249999D01*
G01*
G37*
G04 #@! TD.AperFunction*
G04 #@! TA.AperFunction,SMDPad,CuDef*
G36*
G01*
X192345000Y-105467999D02*
X192345000Y-106368001D01*
G75*
G02*
X192095001Y-106618000I-249999J0D01*
G01*
X191444999Y-106618000D01*
G75*
G02*
X191195000Y-106368001I0J249999D01*
G01*
X191195000Y-105467999D01*
G75*
G02*
X191444999Y-105218000I249999J0D01*
G01*
X192095001Y-105218000D01*
G75*
G02*
X192345000Y-105467999I0J-249999D01*
G01*
G37*
G04 #@! TD.AperFunction*
D10*
X177927000Y-103124000D03*
X177927000Y-105414000D03*
X177927000Y-107704001D03*
X177927000Y-109993999D03*
X177927000Y-112283999D03*
X180467000Y-104267000D03*
X180467000Y-106557000D03*
X180467000Y-108847001D03*
X180467000Y-111136999D03*
X180467000Y-113426999D03*
X183007000Y-103124000D03*
X183007000Y-105414064D03*
X183007000Y-107704128D03*
X183007000Y-109994192D03*
X183007000Y-112284256D03*
D11*
X180467000Y-95072200D03*
X180467000Y-120319800D03*
D12*
X194564000Y-103632000D03*
D13*
X186944000Y-103632000D03*
X186944000Y-112776000D03*
D12*
X194564000Y-112776000D03*
X194564000Y-108204000D03*
D13*
X186944000Y-108204000D03*
D14*
X201930000Y-107315000D03*
X199430000Y-109815000D03*
X201930000Y-102315000D03*
X199430000Y-104815000D03*
X201930000Y-112315000D03*
X211930000Y-109815000D03*
X211930000Y-104815000D03*
X199430000Y-99815000D03*
X199430000Y-114815000D03*
X196930000Y-107315000D03*
D15*
X187198000Y-110617000D03*
X187071000Y-105918000D03*
X187071000Y-101346000D03*
D16*
X195453000Y-107315000D02*
X194564000Y-108204000D01*
X196930000Y-107315000D02*
X195453000Y-107315000D01*
X195613000Y-103632000D02*
X194564000Y-103632000D01*
X199430000Y-99815000D02*
X195613000Y-103632000D01*
X199310000Y-114935000D02*
X199430000Y-114815000D01*
X196603000Y-114815000D02*
X194564000Y-112776000D01*
X199430000Y-114815000D02*
X196603000Y-114815000D01*
X181610000Y-103124000D02*
X180467000Y-104267000D01*
X183007000Y-103124000D02*
X181610000Y-103124000D01*
X180467000Y-108847001D02*
X180467000Y-113426999D01*
X201930000Y-107315000D02*
X203230001Y-106014999D01*
X203230001Y-106014999D02*
X203230001Y-105125999D01*
X204724000Y-103632000D02*
X204724000Y-100076000D01*
X203230001Y-105125999D02*
X204724000Y-103632000D01*
X204724000Y-100076000D02*
X201676000Y-97028000D01*
X201676000Y-97028000D02*
X186436000Y-97028000D01*
X186436000Y-97028000D02*
X183896000Y-99568000D01*
X183896000Y-102235000D02*
X183007000Y-103124000D01*
X183896000Y-99568000D02*
X183896000Y-102235000D01*
D17*
X187325000Y-110490000D02*
X187198000Y-110617000D01*
X189738000Y-110490000D02*
X187325000Y-110490000D01*
X189720000Y-105918000D02*
X187071000Y-105918000D01*
X187080000Y-101337000D02*
X187071000Y-101346000D01*
X189729000Y-101337000D02*
X187080000Y-101337000D01*
D16*
X185954051Y-103632000D02*
X184912000Y-104674051D01*
X186944000Y-103632000D02*
X185954051Y-103632000D01*
X184912000Y-110379256D02*
X183007000Y-112284256D01*
X184912000Y-104674051D02*
X184912000Y-110379256D01*
D17*
X191779000Y-102037000D02*
X191779000Y-101337000D01*
X190184000Y-103632000D02*
X191779000Y-102037000D01*
X186944000Y-103632000D02*
X190184000Y-103632000D01*
X191788000Y-111190000D02*
X191788000Y-110490000D01*
X190202000Y-112776000D02*
X191788000Y-111190000D01*
X186944000Y-112776000D02*
X190202000Y-112776000D01*
X190184000Y-108204000D02*
X191770000Y-106618000D01*
X191770000Y-106618000D02*
X191770000Y-105918000D01*
X186944000Y-108204000D02*
X190184000Y-108204000D01*
M02*
