M48
; DRILL file {KiCad (5.1.8-0-10_14)} date Saturday, December 04, 2021 at 07:30:21 PM
; FORMAT={-:-/ absolute / inch / decimal}
; #@! TF.CreationDate,2021-12-04T19:30:21-07:00
; #@! TF.GenerationSoftware,Kicad,Pcbnew,(5.1.8-0-10_14)
; #@! TF.FileFunction,Plated,1,2,PTH
FMAT,2
INCH
T1C0.0157
T2C0.0276
T3C0.0450
T4C0.0512
T5C0.1300
%
G90
G05
T1
X7.365Y-3.99
X7.365Y-4.17
X7.37Y-4.355
T2
X7.36Y-4.08
X7.66Y-4.08
X7.36Y-4.44
X7.66Y-4.44
X7.36Y-4.26
X7.66Y-4.26
T3
X7.005Y-4.06
X7.005Y-4.1502
X7.005Y-4.2403
X7.005Y-4.3305
X7.005Y-4.4206
X7.105Y-4.105
X7.105Y-4.1952
X7.105Y-4.2853
X7.105Y-4.3755
X7.105Y-4.4656
X7.205Y-4.06
X7.205Y-4.1502
X7.205Y-4.2403
X7.205Y-4.3305
X7.205Y-4.4206
T4
X7.7531Y-4.225
X7.8516Y-3.9297
X7.8516Y-4.1266
X7.8516Y-4.3234
X7.8516Y-4.5203
X7.95Y-4.0281
X7.95Y-4.225
X7.95Y-4.4219
X8.3437Y-4.1266
X8.3437Y-4.3234
T5
X7.105Y-3.743
X7.105Y-4.737
T0
M30
